<?xml version="1.0" encoding="UTF-8"?>
<svg id="Layer_2" data-name="Layer 2" xmlns="http://www.w3.org/2000/svg" viewBox="0 0 138.24 87.6">
  <defs>
    <style>
      .cls-1 {
        fill: #231f20;
        stroke-width: 0px;
      }
    </style>
  </defs>
  <g id="Layer_3" data-name="Layer 3">
    <g>
      <path class="cls-1" d="M138.05.06c.08-.02.16-.05.19-.06-.41.1-.18.06-.19.06Z"/>
      <path class="cls-1" d="M134.34,1.66l.02-.09c-.15.13-.3.27-.44.41l.41-.32Z"/>
      <path class="cls-1" d="M130.88,3.16c.64.34,1.19-.64,1.91-.75l.16.04.09-.42c-.74.34-1.55,1.03-2.16,1.13Z"/>
      <path class="cls-1" d="M128.18,2.62c.28.21-.3.34.51-.06-.06-.01-.08-.02-.12-.04-.08.03-.19.06-.39.09Z"/>
      <path class="cls-1" d="M128.57,2.53c.38-.13-.38-.13,0,0h0Z"/>
      <path class="cls-1" d="M126.86,3.21l.36-.39c-.21-.13-.7-.04-.6-.21-.46.27-.23.42.24.6Z"/>
      <path class="cls-1" d="M126.71,3.9l.19-.2c-.09-.05-.18-.06-.19.2Z"/>
      <path class="cls-1" d="M127.32,3.29l-.42.41c.15.09.3.32.2-.17.09.23.07-.02.21-.24Z"/>
      <path class="cls-1" d="M127.7,3.29c.38.05.79,0,.44.42.88-.46.48-.82-.44-.42Z"/>
      <path class="cls-1" d="M131.05,3.78l.44-.04.19-.32c-.1.16-.75.21-.63.36Z"/>
      <path class="cls-1" d="M123.39,3.75c.09.2.49.45.68.68l.24-.34c-.27-.06-.72-.07-.92-.34Z"/>
      <path class="cls-1" d="M124.07,4.43l-.35.52c.51-.14.51-.33.35-.52Z"/>
      <path class="cls-1" d="M127.15,4.76c.17-.32.34-.63.53-.92-.24.32-.47.65-.69,1l.16-.08Z"/>
      <polygon class="cls-1" points="121.19 4.36 121.2 3.77 121.1 4.69 121.19 4.36"/>
      <path class="cls-1" d="M119.8,4.88c-.04-.51-.81-.66-.73-1-.35.18-.45.66-.52,1.11.19-.3.58-.33,1.25-.1Z"/>
      <path class="cls-1" d="M118.39,5.67c.09-.17.12-.42.17-.69-.1.16-.17.36-.17.69Z"/>
      <path class="cls-1" d="M122.72,5.19c-.12-.11-.41-.4-.81-.44l.59.51c.07-.02.14-.05.22-.07Z"/>
      <path class="cls-1" d="M122.52,5.28l-.02-.02c-.24.07-.41.12-.49.14.06-.02.22-.05.51-.12Z"/>
      <path class="cls-1" d="M122.78,5.18s-.04.01-.06.02c.06.05.08.06.06-.02Z"/>
      <path class="cls-1" d="M125.49,4.93c-.15.4-.58,1.02.31,1.16,0-.45-.52-.54-.31-1.16Z"/>
      <path class="cls-1" d="M123.5,5.79l.65-.11c-.1-.14-.34-.31-.28-.52l-.37.63Z"/>
      <polygon class="cls-1" points="123.33 6.09 123.5 5.79 123.25 5.83 123.33 6.09"/>
      <path class="cls-1" d="M119.81,5.97c-.07.38-.33.51-.6.68.42.01.8-.05,1.13-.18-.09-.23-.18-.65-.52-.5Z"/>
      <path class="cls-1" d="M121.17,5.7s-.03.04-.03.06c.07.04.11.05.03-.06Z"/>
      <path class="cls-1" d="M116.4,8.17s.08.07.12.1l-.07-.13-.05.03Z"/>
      <path class="cls-1" d="M120.46,6.57c.33.03.37-.19.39-.44-.15.14-.31.26-.52.34.04.1.07.17.13.1Z"/>
      <path class="cls-1" d="M117.73,6.3c.23.1.46.18.69.24-.27-.18-.76-.45-.69-.24Z"/>
      <path class="cls-1" d="M120.94,5.61s.01-.03.02-.04c-.17-.11-.12-.04-.02.04Z"/>
      <path class="cls-1" d="M120.94,5.61c-.07.14-.07.33-.09.51.12-.11.22-.23.28-.37-.06-.03-.13-.09-.2-.14Z"/>
      <path class="cls-1" d="M118.53,13.36c-.38-.69-.2-1.68.76-1.28.17-.82-1.58-2.87-2.77-3.8.17.3.35.59.1,1.32.41.25,1.64.1,1.61,1-.44.79-.69.12-1.24-.02.81.66-.09,1.76.84,2.89l.32-.8c.13.18.11.62.39.69Z"/>
      <path class="cls-1" d="M117.49,7.67l.16-.21c-.32.02-.66-.14-1.29-.44-.12.58-.03.89.09,1.13.35-.21.68-.43,1.05-.62v.15Z"/>
      <path class="cls-1" d="M118.66,6.98c.27.78-.06,1.37.77,2,.62-.38.07-.83.28-1.32-.98.65.07-.52-.99-.61.14-.21.31-.32.48-.42-.26,0-.52-.04-.79-.11.02.01.04.02.05.04h0s0,0,0,0c.11.07.16.12.07.09,0,.01,0,.02-.01.02.06.1.09.2.12.29-.42-.03-.17-.17-.12-.29-.02-.04-.03-.07-.05-.11h0c-.29.26-.57.55-.82.88.28-.02.54-.19,1.01-.47Z"/>
      <path class="cls-1" d="M125.96,7.52c-.06-.03-.08-.07-.11-.1-.02.1-.02.17.11.1Z"/>
      <path class="cls-1" d="M125.34,7.45c.02-.12-.05-.37.23-.45.31.04.16.26.28.43.05-.23.27-.67-.35-.67l-.03.11c-.53.05-1.52-.39-1.5-.51.45.45.79.76,1.37,1.09Z"/>
      <path class="cls-1" d="M122.19,7.58l-.67.76.8.34-.24-.33c.57-.13.21-.48.11-.77Z"/>
      <polygon class="cls-1" points="116.07 7.88 115.69 7.02 115.92 8.45 116.07 7.88"/>
      <polygon class="cls-1" points="115.08 8.67 114.69 7.98 114.67 8.56 115.08 8.67"/>
      <path class="cls-1" d="M59.9,55.26l-.12.34c.08-.13.11-.24.12-.34Z"/>
      <path class="cls-1" d="M61.68,54.2l-.17-.36c.03.23.09.39.17.36Z"/>
      <path class="cls-1" d="M88.82,25.42c-.75-.4-1.76-1.12-1.24-.39l.57.66c.16-.29.4-.33.66-.27Z"/>
      <path class="cls-1" d="M73.58,41.21c.08.05.16.1.24.16-.07-.31-.14-.59-.21-.85-.01.21-.02.45-.04.69Z"/>
      <path class="cls-1" d="M75.26,44.4l-.76-.18c.21.1.46.16.76.18Z"/>
      <path class="cls-1" d="M50.82,62.11l.19.93c.44-.28,0-.54-.19-.93Z"/>
      <path class="cls-1" d="M104.28,15.89c-.49-.09-.8-.06-1.04.04.63.19,1.33.63,1.04-.04Z"/>
      <path class="cls-1" d="M55.66,47.05c-.06.23-.03.42.08.58.07-.22.07-.42-.08-.58Z"/>
      <path class="cls-1" d="M102.36,16.49c.1.04.18.04.27.07.14-.26.31-.5.61-.63-.47-.14-.9-.14-.88.56Z"/>
      <path class="cls-1" d="M15.17,82.65s-.09-.02-.13-.04c.04.08.08.07.13.04Z"/>
      <path class="cls-1" d="M2.53,85.08c.08-.09.22-.23.35-.36-.07.05-.18.16-.35.36Z"/>
      <path class="cls-1" d="M110.57,11.08c.2-.19-.02-.1,0,0h0Z"/>
      <path class="cls-1" d="M113.51,13.28c0,.11.03.24.14.41-.09-.19-.13-.32-.14-.41Z"/>
      <path class="cls-1" d="M102.99,22.49h-.02c.16.11.13.09.02,0Z"/>
      <path class="cls-1" d="M111.12,11.2c-.14-.04-.29-.05-.43-.03.08.03.22.04.43.03Z"/>
      <path class="cls-1" d="M110.85,10.88c.1-.02.17-.04.24-.05-.05-.14-.12-.2-.24.05Z"/>
      <path class="cls-1" d="M110.28,11.32c.12-.09.27-.14.42-.16-.08-.02-.12-.05-.12-.08-.06.05-.14.13-.29.24Z"/>
      <path class="cls-1" d="M33.07,69.75s-.06-.02-.09-.04c-.04.45.03.34.09.04Z"/>
      <path class="cls-1" d="M87.74,36.77s0-.04,0-.05c-.02,0-.04,0-.05,0l.05.06Z"/>
      <path class="cls-1" d="M87.27,37.84c-.23-1.13.04-1.15.42-1.12l-1.61-1.94,1.19,3.06Z"/>
      <path class="cls-1" d="M55.84,58.14l.99.3c0,1.52-.74,1.47.38,2.05-1.37-2.35,2.08-1.65.7-3.99l.68.24c-.12.05-.05.19-.18.24,1.43.63-.51-2,.65-2.28.44-.03.88.15.83.57l.38-1.03c.24-.09.44.34.2.43l1-.89.03.07c-.07-.46-.06-1.25-.03-1.6.49.15.01.33.27.57l.27-.95c.63.43.48,1.34,0,1.52,2.03,1.92.15-.9,2.25-.36l-.4.66c1.2,1.06,1.36.3,2.54.69-.43-.32-2.62-1.2-2.31-2.2.3.05.6-.02.67-.72.52.81.75.39,1.16.06l.65,1.1c.28-.62-.1-1.14-.13-1.81.6-.23,1.24.53,1.82,1.16.97-.37-1.44-.97-.56-1.81.97-.04,1.2-.8,1.64-1.98.73.06.33.72.71.91l-.1-1.14c.12-.05.25.24.32.38.16-.57-.65-1.1-.25-1.76-.6-1.29,2.3.98,2.17-.83.37.19.33.72.65,1.1.43-1.52.44-1.18.5-2.9l1.15.27c-1.03-.49-.98-1.86-.91-3.01-.43-.28-.8-.52-1.01-.62l.55-1.16c.22.11.37.54.5,1.08,0-.13,0-.25,0-.36.58.19.81.92.95,1.68-.25-.15-.5-.31-.75-.46.19.8.44,1.66.89,2.26-.02-.16.03-.34.11-.48.05.22.12.4.21.49.1.09.05-.21.02-.58l.97,1.07-.25-.51h1.67c.09-1.76-.3-4.01.74-5.37.22,1.1.84,1.49,1.49,2.55-1.07-.87-.75,1.14-1.6,1.36.44-.12.68.43.69.67l.61-1.8c.51.87.67.47,1.22.62-1.32-1.54.22-1.72.4-2.56.39.55.64,1.21-.07,1.46,1.49.84-.37-2.55.99-1.89-.14.11-.28.07-.16.4.03-.73,1.16-.88,1.27-.26l-.14.11c1.14-.44,3.08-1.93,2.32-3.47.13.18.97,1.82,1.09,2.15l-1.26-5.98c.62,1.33,3.09,3.89,2.7,5.12.35.02.78.04,1.01-.72-.28-.07-1.54-1.53-1.39-1.78,1.49.98.89.46,2.39,1.16-.41-.11-1.37-2.22-.94-2.4.12.33,1.24,1.89,1.23,2.18l-.24-2.51c-.02.5.98,1.64,1.53,2.04-.34-.31.86-.49,1-.85l-.69-.18c1.27-.4-.62-3.35.53-3.94.12.48,1.21,2.62,1.91,2.51-.36-1.13-1.85-5.39-1.37-6.74l.54.44.33-1.1c.47,1.75,1.14,5.65,1.2,7.29.69.18.53.58,1.11.15.55.38.17,1,0,1.15l1.64-.57c-.78-1.1.37-1.83-.29-2.74l-.8,2.16c-.78-1.09-1.15-3.79-.01-4.23.54.29,1.09,2.14,1.35,2.51-.12-.47.48-1.35.75-1.13l-.04.88c.83.07-.04-2.09,1.32-1.43.28-.07,1.62,1.02,1.24.32-1.2-1.06-3.82-5.02-4.18-6.15.14.04,2.01.46,2.68.94,1.03.77.96,2.79,1.84,3.45-.18-.32-.21-.84-.2-1.01.41.11.51,1.03.95.55-.64-1.21,1.14-.59-.37-1.13.31-.66.7-.11,1.28-.55-.67-.62-1.06-2.88-.74-3.54.15.31.51.62.68.76,1.13-.57,2.03-.41,3.03-1.03.27.22.96.25,1.07.88.01-.29-.1-.77.19-.99,1.22.62-.58.59.63,1.5-.39-.69.21-1.43.38-2.12-.79-.95-1.13.44-1.31,1.14-.91-1.42-1.09-3.4-.47-4.72.6-.88.94.69.96.4,1.71-.73-.26-3.33,1.68-3.11,1.09.58,1.17,1.79,1.7,2.38-.45.77-1.4.08-1.83.4l.83.07c-.02.44-.33.95-.74.84.95.54,2.72-1.5,4.39-1.51.02-.44.19-.99-.22-1.24l-.3.37c-.81-.51.07-1.46-.63-1.5.18-.84.24-2.01,1.21-2.04l.79.95c-.21-.29-.86-.32-.86.12,0-.65,1.98.71,1.45-.86l-.96-.4c.18-.84.11-2.34.95-2.42-.94-.84-.07.21-1.28-.7,1.33,1.24-1.66.96-.04,2.13-1.34-1.1-1.17-.08-2.53-.88.24.33.63.52-.01.69.04.12.06.28.07.37-.02,0-.03,0-.05,0l.05.02c0,.07.01.08.02,0,.22.07.44.18.6.35.23.95-.63,1.46-.66,2.05-.42.04-.12-.48-.52-.73l-.04.88c-.52-.73-1.64-.73-1.18-1.64l-.69.39c-.66-.18-1.31,0-1.44.53-.42.04-.26,1.34-.37.58l-.75,1.13-.13-.18c-1.1.56-1.33,2.61-3.39,1.99-.23.41-.44.87-1.16,1.03l-.53-.58c-.3.51-1.76.19-1.52,1-1.6-1.46-2.42.99-3.4,1.18l.51.88c-.57.29-.94.87-1.39,1.64l.52.73c-.19.99-1.83.41-2.7,1.06-.12-.33.16-.4.43-.33-2.18-1.02-1.52,2.71-3.31,2.09-.07.43-.31.45-.61.37.02-.02.03-.04.04-.08-.03,0-.07.03-.11.06-.19-.06-.4-.14-.6-.19.22.12.42.21.55.22-.18.14-.41.41-.57.78l-.64-.74s-.04.04-.05.06c-.47-.12.02.53.56,1.04-.06.22-.09.47-.06.73-1.06-1.17-.46.91-1.66-.29.24.8-1.1,1.42-.34,2.95-.13-.18-.27-.22-.12-.33-.42.04-.84.07-.87.66l-.79-.95.19,1.83c-.82-.36-1.23-.62-1.31-1.68-.23,1.86-.52.98-.61,2.73l-.38-.7c-.29.22-.21,1.43-.75.99-1.49-.84-3.5,1.97-6,1.9,1.59,1.75-1.38-.37-.48,1.2-.4-.4-.81-.51-.78-1.09-.61,1.03-1.81.11-1.62,1.79-.4-.4-.24-.8-.51-1.02,0,.15-.03.59-.3.37-.27-.22-.12-.47-.1-.77-.87.66-.05,2.15.74,3.54-.87-.34-1.04-.11-.82.99-.44-.34-1-.63-.53-1.15-.36.14-2.36.59-1.71,1.69-.27-.21-.5.2-.5.38-.76.39-.88.33-1.52.88l.31.05c.55,1.48-.4.66-.87,1.18l-.07-.14c-1.9-.11-.28.81-2.24.55l.58.77c.98,1.82-1.79-.31-2.12.83l.56.29c-.03.85-2.64-1.65-3.19-1.61-.19-.1-.01-.33.04-.52-1.72-.35.53,1.15-.11,1.9-.51-.48-.73-1.58-1.34-1.34-.56-.29-.38,2.85-1.81,2.21.44.34.88.68.72,1.24-.47.52-2.59-.69-2.23,1.02-.15-.07-.25-.17-.32-.28-.21.63-1.03,1.49-.82,2.41-2.18-2.54-1.84,3.07-3.47.49l-1.25.99-.13-.29c-.96.37-.87,1.18-.78,1.99-.31-.05-.32-.38-.39-.53-1.58.27-1.63.46-1.87,2.41l-.64-.77c.02.67-2.64-.17-3.24,1.58-.05-.1-.13-.28-.1-.46-.76,1.86-4.77-.23-3.34,3.14l-.43,1.33c1.33-.51.66,1.43,1.47,1.63-.35.47-1.78-.16-1.31-.68l.19.1c-.8-1.72-1.82.36-2.47-.74-2.27,1.55-5.08,2.1-7.29,3.4l1.03,1.08-.8.41c-.38-.16-.88-.8-.31-1.09-.73-.52-.53,1.16-.38,1.44-1.37.17-.5-1.7-.84-1.53l-.38.37.19.08c-.04.73.27,1.29-.42,1.64-.57.01-.69-.63-.89-.57-.05-.09-.14-.09-.27.12l-1.02.5,1,.73c-.12.75-.93.52.21,1.34-1.73-1.3-3.94,1.64-4.67,1.36-.14,1.09-.73,1.44-1.51,1.82.31.09,1.11,1.12.4,1.38-1.21-2.41-1.77-.26-3.3-1.57,1.15.82-1.65,1.32.06,2.45-.65.12-.58-.84-1.33-1.16-.76,1.54-2.92,1.44-4.1,2.96.14.27.63.48.57,1.11-.52-.22-1.03-.43-1.52-.61-.18.38.62,1.6-.39,1.23.19.13.49.34.35.57-1.72.61-2.93,2.08-4.28,3.36-1.33,1.31-2.82,2.38-4.32,3.37.44-.22.22.04-.05.31.2-.14.1.17.2.23-.44.24-.87.51-1.27.82-.11.34-1.18,1.16-1.26,1.34l.36-.33c-.21.26-.03.14.26.05.28-.1.66-.17.68-.05.27-.24.73-.39,1.28-.51.54-.13,1.18-.21,1.54-.74.3,0-.11.24.09.29.16-.3.45-.52,1.13-.68l-.03.09c1.7-.8,2.61-.86,4.79-1.32l-.44-.41c.46-.11.65,0,.92.05.01-.95-1.21.44-1.27-.52.57.34,1.32.04,2.05-.25.73-.28,1.44-.55,2.08.07.66-.24-.63-.62.02-.88l.42.32-.15-.57c.47-.1,1.01.32,1.24.66-.13,0-.24.21-.33.28.87.28,1.49-.75,1.78-.67l-.8-.03c.77-.55,1.78-.91,2.75-1.32,1-.37,1.8-1.03,2.2-2.1l-.36-.3c.69-1.51,1.18-.22,2.27-1.37v.12c.03-.54.26-.95.64-1.13-.05.65,1.16.47,1.04,1.23.8-1.56.26-.99.21-2.93l.59.5c-.07-.75-.24-1.06.3-1.63-.19.87,1.02.69.87,1.78,2.22.51,1.13-2.66,3.02-1.05-.48-2.13-1.78-.22-1.67-.81-.65-.38-.31-1.62.23-1.72.46-.24,2.14,1.75,3.21,1.03-.11.06-.04.2-.15.26.69.18.42-1.1,1.37-.7-.38-1.23.69-.35-.08-1.74l-.8.94c.34-.71-.12-2.61,1.3-2.44.1.32.05.85-.02,1.16.52.22.36-.59.9-.37.77,1.39-1.03,1.06-.99,2.46.65.38.53-1.7,1.15-.05-.73-2.12,1.22-.45,1.06-2.32l.46.83c.04-.2.04-.73.27-.85l.27,1.29c.03-1.26,1.64.05,1.91-.8-1.18.78-.88-.8-1.76-1.06.8-2.01,2.18,1.56,3.59.13-.15.25-1.15.05-1.03-.54.42-.03,1.03,0,1.49.31.99-.86-.69-.72-.54-1.51.99.74.29-.74.57-1.36l.52.81c1.58-.27-.75-1.91.78-1.99l.24,1.43.4-.66.47,1c.2-1.09.51-1.04,1.3-1.18-.51-.48-.86-1.53-.32-1.91.68.25.28.91.99.3.15.62.36,1.38-.46.85.13.29.15.62.28.91.76.3,1.1-.52,1.38-.71-.13.04-.29.08-.43,0l.42-1.85c.37.19.39.53.4.86.17-.23.1-.71.39-.99.33.72.79,1.39.51,2l.62-1.42c.25.24,1.06.44,1.07.77.85,0,.66-2.22,1.78-2.21-.04-.15-.04-.33.07-.53.84-.32,2.02.07,2.33-1.4l1.26.87c.52-.71-1.63-1.06-.76-2.25.58-.9.95.82,1.44.97.03-.86-.04-2.52,1.33-2.03-.11.38-.41.33-.59.56ZM64.06,52.18c-.06.28-.05,1.01-.48.61-.4-1.05.03-.7.48-.61ZM75.84,41.97c.05.35-.23.34-.64.16.11-.17.31-.25.64-.16ZM108.5,13.33s0,.03,0,.05c-.57-.08-.36-.04,0-.05ZM109.49,13.19c0-.16-.07-.27-.18-.37.08.24-.09.36-.32.43.19.18.38.26.5-.06ZM27.17,65.81l.28.12c-.19.45-.23.18-.28-.12Z"/>
      <path class="cls-1" d="M75.07,44.02c-.13-.11-.24-.25-.35-.4.02.18.12.34.35.4Z"/>
      <path class="cls-1" d="M50.78,61.94s-.02,0-.03,0c.02.06.04.11.07.16l-.04-.17Z"/>
      <path class="cls-1" d="M101.96,27.65c-.23-.02-.42-.11-.57-.23.12.2.3.33.57.23Z"/>
      <path class="cls-1" d="M112.68,9.23l-.36.52c.21-.19.41-.07.61-.01-.13-.18-.4-.4-.25-.51Z"/>
      <path class="cls-1" d="M120.15,11.56c0-.15.15-.11.15-.26l-.26-.37c-.29.22-.31.67.11.63Z"/>
      <path class="cls-1" d="M114.86,11.65c.47.66.63.23.9-.11-.02.02-.04.03-.06.04-.51-1.02-.67-.47-.84.07Z"/>
      <path class="cls-1" d="M115.82,11.46c.09-.1.18-.19.31-.22-.2-.41-.18,0-.31.22Z"/>
      <path class="cls-1" d="M110.18,12.12c.28.07-.45-.94-.18-.72-.37-.99-.42,1.75.18.72Z"/>
      <polygon class="cls-1" points="116.57 13.73 115.91 12.96 116.15 13.76 116.57 13.73"/>
      <path class="cls-1" d="M113.45,14.83l.7-.11c-.1-.14-.08-.26-.04-.38-.36.19-.84.25-.66.5Z"/>
      <path class="cls-1" d="M114.11,14.33c.19-.1.34-.22.35-.42-.09.07-.28.23-.35.42Z"/>
      <polygon class="cls-1" points="115.97 14.46 115.7 14.39 115.27 14.57 115.97 14.46"/>
      <path class="cls-1" d="M107.42,18.42l-.45.62c.12.33.4.4.55.15.02-.29.17-.55-.1-.77Z"/>
      <path class="cls-1" d="M110.71,19.59c-.27-.07-.4-.25-.67-.48l.65,1.06.03-.59Z"/>
      <path class="cls-1" d="M109.11,20.94c.12.33-.34,1.39.38.84-.12-.33.33-.95-.38-.84Z"/>
      <polygon class="cls-1" points="99.21 25.36 99.36 25.25 98.24 23.54 99.21 25.36"/>
      <path class="cls-1" d="M93.83,34.53c.97-.04-.5-1.17.47-1.06-.09-.51-.79-.09-.84-.55-.16.7-.54.6.38,1.61Z"/>
      <path class="cls-1" d="M93.46,32.93c.03-.11.05-.24.05-.4-.06.19-.06.31-.05.4Z"/>
      <path class="cls-1" d="M1.03,86.42c-.13.13-.26.26-.39.4.09-.08.17-.16.26-.24l.12-.17Z"/>
      <path class="cls-1" d="M.33,87.28s-.07.04-.11.07c-.07.09-.15.17-.23.25.09-.09.26-.26.33-.32Z"/>
      <path class="cls-1" d="M66.74,53.59l-.13-.29c-.25-.24-.37-.19-.62-.1l.75.39Z"/>
      <polygon class="cls-1" points="60 56.7 60.12 56.66 59.3 55.79 60 56.7"/>
      <path class="cls-1" d="M55.59,61.27c.24-.09.35-.47.59-.57-.35.47-1.43-.63-.59.57Z"/>
    </g>
  </g>
</svg>