<?xml version="1.0" encoding="UTF-8"?>
<svg id="Layer_2" data-name="Layer 2" xmlns="http://www.w3.org/2000/svg" viewBox="0 0 192.05 96.06">
  <defs>
    <style>
      .cls-1 {
        fill: #231f20;
        stroke-width: 0px;
      }
    </style>
  </defs>
  <g id="Layer_5" data-name="Layer 5">
    <g>
      <path class="cls-1" d="M191.84.15c.32-.08.17-.12.21-.15-.52.14-.18.17-.21.15Z"/>
      <path class="cls-1" d="M186.98,2.14l.04-.13c-.21.16-.41.34-.61.51l.57-.39Z"/>
      <path class="cls-1" d="M182.38,3.88c.73.42,1.61-.74,2.53-.85l.19.06.17-.53c-.98.41-2.12,1.21-2.9,1.32Z"/>
      <path class="cls-1" d="M179.17,3.27c.3.23-.43.4.64-.08-.07-.01-.1-.03-.14-.04-.1.03-.24.07-.5.12Z"/>
      <path class="cls-1" d="M179.66,3.15c.5-.16-.44-.13,0,0h0Z"/>
      <path class="cls-1" d="M177.43,4l.53-.46c-.23-.13-.84-.01-.68-.2-.61.33-.37.49.16.67Z"/>
      <path class="cls-1" d="M177.1,4.79l.28-.23c-.1-.06-.2-.06-.28.23Z"/>
      <path class="cls-1" d="M177.97,4.08l-.6.48c.16.1.3.35.28-.2.06.25.09-.02.31-.28Z"/>
      <path class="cls-1" d="M178.44,4.07c.45.05.96-.02.44.46,1.18-.54.76-.96-.44-.46Z"/>
      <path class="cls-1" d="M182.47,4.61l.55-.03.3-.38c-.15.19-.98.23-.86.41Z"/>
      <path class="cls-1" d="M173.1,4.79c.06.21.49.46.66.7l.37-.38c-.31-.05-.85-.03-1.03-.32Z"/>
      <path class="cls-1" d="M173.76,5.49l-.54.59c.66-.18.69-.39.54-.59Z"/>
      <path class="cls-1" d="M177.43,5.73c.28-.36.57-.7.86-1.04-.37.36-.73.74-1.08,1.14l.22-.1Z"/>
      <polygon class="cls-1" points="170.3 5.61 170.46 4.98 170.11 5.97 170.3 5.61"/>
      <path class="cls-1" d="M168.5,6.27c.08-.54-.8-.64-.61-1.01-.47.22-.7.74-.9,1.22.31-.33.77-.41,1.52-.21Z"/>
      <path class="cls-1" d="M166.61,7.22c.15-.18.25-.45.38-.74-.16.18-.3.4-.38.74Z"/>
      <path class="cls-1" d="M171.94,6.4c-.12-.11-.39-.41-.87-.42l.58.51c.09-.03.19-.06.29-.09Z"/>
      <path class="cls-1" d="M171.68,6.51l-.02-.02c-.31.09-.53.15-.62.18.08-.02.27-.07.64-.16Z"/>
      <path class="cls-1" d="M172.01,6.38s-.05.01-.07.02c.06.05.08.06.07-.02Z"/>
      <path class="cls-1" d="M175.36,5.97c-.27.44-.96,1.13.1,1.25.11-.49-.5-.57-.1-1.25Z"/>
      <path class="cls-1" d="M172.73,7l.81-.15c-.09-.14-.34-.32-.21-.55l-.61.7Z"/>
      <polygon class="cls-1" points="172.46 7.32 172.73 7 172.43 7.05 172.46 7.32"/>
      <path class="cls-1" d="M168.23,7.41c-.18.41-.52.56-.9.76.5-.02.98-.11,1.4-.27-.05-.23-.04-.67-.5-.49Z"/>
      <path class="cls-1" d="M169.94,7.03s-.04.04-.05.06c.07.04.12.04.05-.06Z"/>
      <polygon class="cls-1" points="163.37 9.62 163.51 9.74 163.46 9.6 163.37 9.62"/>
      <path class="cls-1" d="M168.86,8c.39,0,.5-.23.58-.49-.21.15-.45.29-.72.4.02.1.05.17.13.1Z"/>
      <path class="cls-1" d="M165.66,7.92c.25.09.5.15.76.2-.28-.16-.79-.4-.76-.2Z"/>
      <path class="cls-1" d="M169.68,6.96s.02-.03.03-.05c-.18-.1-.13-.04-.03.05Z"/>
      <path class="cls-1" d="M169.68,6.96c-.12.15-.17.36-.23.55.17-.12.32-.26.43-.41-.06-.03-.14-.09-.2-.14Z"/>
      <path class="cls-1" d="M164.42,14.56c-.01-.09.23-.15.39-.57.21-.33.63-.41,1.12-.3.47-.78-1.14-2.89-2.42-3.95.13.32.27.6-.25,1.32.46.3,2.07.23,1.78,1.13-.77.8-.9.1-1.56-.08.42.37.28.83.15,1.37-.07.27-.13.56-.12.86,0,.15.03.3.08.46.02.11,0,.08.05.11.25-.18.54-.28.76-.52.08.11-.23.25.02.18Z"/>
      <path class="cls-1" d="M164.95,9.28l.26-.2c-.41.01-.79-.17-1.53-.55-.34.52-.32.83-.23,1.07l1.55-.46-.05.14Z"/>
      <path class="cls-1" d="M166.59,8.57c.12.8-.45,1.41.38,2.01.85-.42.32-.86.69-1.38-1.35.74.22-.55-1.02-.56.22-.23.46-.36.69-.47-.3.01-.61,0-.91-.05.02.01.04.02.06.03h0s0,0,0,0c.11.07.15.11.06.09,0,.01-.02.02-.02.03.04.1.06.2.07.29-.49,0-.16-.16-.07-.29-.01-.04-.02-.07-.04-.11h0s-1.26.92-1.26.92c.36-.01.73-.18,1.37-.51Z"/>
      <path class="cls-1" d="M175.3,8.76c-.07-.03-.09-.07-.11-.11-.06.11-.07.18.11.11Z"/>
      <path class="cls-1" d="M174.56,8.69c.06-.13.03-.4.39-.49.37.04.13.27.24.45.12-.25.5-.72-.27-.71l-.06.12c-.66.07-1.76-.36-1.7-.48.43.46.77.78,1.39,1.11Z"/>
      <path class="cls-1" d="M170.69,8.96l-1.02.83.88.31-.2-.33c.73-.16.38-.52.33-.81Z"/>
      <polygon class="cls-1" points="163.04 9.29 162.8 8.41 162.67 9.82 163.04 9.29"/>
      <polygon class="cls-1" points="161.52 9.96 161.21 9.2 161.02 9.8 161.52 9.96"/>
      <path class="cls-1" d="M80.3,57.44l-.32.21c.15-.09.25-.16.32-.21Z"/>
      <path class="cls-1" d="M82.74,56.23l.03-.1c-.09.09-.13.15-.03.1Z"/>
      <path class="cls-1" d="M123.65,25.58c-1.04-.87-2.46-2.33-1.74-1.03l.8,1.22c.23-.39.57-.36.94-.19Z"/>
      <path class="cls-1" d="M102.3,45.46c.05,0,.11-.02.17-.02.05-.06.09-.11.13-.16,0-.15-.1-.46-.14-.67-.01.33.05.86-.16.86Z"/>
      <path class="cls-1" d="M102.28,46.27l-.7.22c.16-.04.39-.11.7-.22Z"/>
      <path class="cls-1" d="M67.06,64.21l-.32.35c.62-.31.31-.25.32-.35Z"/>
      <path class="cls-1" d="M145.75,16.52c-.64-.23-1.08-.27-1.42-.2.84.4,1.72,1.13,1.42.2Z"/>
      <path class="cls-1" d="M77.33,49.08c-.08.35-.03.68.13.98.09-.34.08-.67-.13-.98Z"/>
      <path class="cls-1" d="M143.06,16.83c.13.08.24.1.36.16.23-.31.48-.59.91-.67-.62-.3-1.21-.41-1.27.51Z"/>
      <path class="cls-1" d="M18.61,87.93l-.12.04s.05,0,.12-.04Z"/>
      <path class="cls-1" d="M3.77,93.38c.12-.1.33-.25.53-.38-.1.05-.27.16-.53.38Z"/>
      <path class="cls-1" d="M155.02,11.93c.3-.18,0-.12,0,0h0Z"/>
      <path class="cls-1" d="M158.4,14.85c-.02.13,0,.28.09.49-.08-.23-.1-.38-.09-.49Z"/>
      <path class="cls-1" d="M143.22,25.03h-.03c.11,0,.09,0,.03,0Z"/>
      <path class="cls-1" d="M155.73,12.15c-.18-.06-.37-.1-.56-.11.1.05.28.09.56.11Z"/>
      <path class="cls-1" d="M155.45,11.75c.14,0,.24-.01.33-.02-.03-.17-.12-.25-.33.02Z"/>
      <path class="cls-1" d="M154.58,12.15c.18-.09.38-.11.59-.11-.1-.04-.15-.08-.15-.12-.09.05-.22.12-.44.22Z"/>
      <path class="cls-1" d="M44.37,74.83s-.05.01-.07.02c-.29.21-.16.14.07-.02Z"/>
      <path class="cls-1" d="M119.46,37.74l.03-.03s-.04.01-.05.02h.02Z"/>
      <path class="cls-1" d="M118.38,38.42c.39-.43.67-.55,1.06-.69l-.59-.25-.47.94Z"/>
      <path class="cls-1" d="M74.48,60.39l.86-.26c-.85.7-1.59.97-.74.79-.12-.53,3.07-1.59,2.95-2.12l.58-.16c-.15.07-.16.11-.31.18,1.14-.28.59-.72,1.94-1.31.48-.19.83-.28.55-.07l.96-.63c.3-.14.27-.02-.03.12l1.54-.81v.02c.18-.19.63-.55.85-.73.43-.13-.17.15-.04.16l.8-.55c.41-.05-.24.43-.85.71,1.05.08.66-.48,2.53-1.06l-.78.47c.66.01,1.25-.4,2.25-.69-.26.02-2.06.49-1.18-.1.28-.1.64-.25,1.1-.6.09.17.56-.12,1.18-.44l.07.25c.63-.4.52-.49.87-.79.76-.35,1-.25,1.25-.19,1.21-.56-.96.13.42-.62,1.03-.41,1.68-.85,2.8-1.57.73-.27-.05.2.23.14l.52-.49c.15-.07.13,0,.12.05.48-.33-.07-.25.71-.72.09-.36,1.85-.47,2.72-1.25.28-.06-.05.2.07.25,1.29-.88,1.12-.73,2.13-1.55l1.04-.33c-.8.18.01-.47.72-1.03l-.11.02s-.14-.13-.2-.18c-.14-.14-.28-.27-.4-.4-.25-.24-.46-.44-.61-.56l.72-1.73c.32.26.54,1.03.76,1.99,0-.21,0-.42-.01-.61.21.13.39.31.54.53.08.11.15.23.21.35.04.09.04.08.04.09v.03c-.01.08-.12.21-.25.36l-.53.09c-.24.29-.46.59-.33.69.07-.07.22-.17.39-.27-.06.08-.1.14-.05.14.05,0,.16-.11.34-.28l.41.11.02-.14,1.74-.67c1.06-.85,1.91-1.74,3.74-2.78-.38.42.05.35.13.58-.63.02-1.41.83-2.41,1.27.52-.23.46-.07.35.03l1.64-1.08c.05.2.44-.05.93-.2-.52-.18,1.18-.88,1.84-1.35.1.1,0,.3-.89.71,1.09-.21,1.03-1.03,2.07-1.27-.21.11-.33.15-.39.25.44-.35,1.69-.87,1.46-.63l-.21.11c1.42-.66,4.27-2.13,4.33-2.53.03.03,0,.45-.06.55l1-1.13.25-.28.13-.14-.11-.61-.47-2.51c.22.59.61,1.34,1.06,2.16.1.19.21.38.32.57l.07.06s.09.08.12.13c.14.18.15.41-.39.77.35-.13.79-.3,1.44-.74-.25.08-.75-.08-.45-.26.99-.14.67-.15,1.84-.43-.37.12-.19-.47.36-.73-.05.1.24.37.06.51l1.15-1.06c-.3.24.1.36.46.32-.18,0,1.16-.57,1.5-.79l-.61.2c1.54-.7,1.23-1.29,2.74-2.02-.14.17-.21.71.58.38.13-.19.4-.61.79-1.1l.08-.09c0-.08-.05-.26-.07-.38l-.15-.82c-.09-.54-.16-1.05-.21-1.53-.09-.95-.08-1.74.1-2.22l.73.83.5-1.56c.15.69.31,1.59.47,2.6.08.5.16,1.03.24,1.57l.06.41.03.21c.02.08-.02.05-.03.08l-.2.2c-.54.54-1.12,1.1-1.55,1.47.61-.2.22.05,1.07-.38.35-.05-.38.39-.63.52l2.01-.93c-.2-.18,1.4-.99,1.23-1.13l-2.03,1.31c-.2-.18.92-1.26,2.34-1.92.4-.09-.07.53,0,.59.14-.17,1.26-.81,1.41-.82l-.53.42c.82-.31,1.12-.93,2.17-1.19.33-.15,1.11-.2,1.1-.36-.33,0-.61-.18-.79-.4l-.06-.09-.03-.04-.16-.33c-.25-.5-.48-.98-.68-1.43-.4-.89-.7-1.62-.81-2.06.19.09,2.73,1.21,3.61,2.05.17.17.32.37.43.57.03.02.04.05.03.09-.02.08-.09.19-.17.3-.15.22-.32.44-.05.41-.01-.07.25-.29.36-.38.37-.12-.05.26.68-.14.01-.28,1.51-.73.26-.36.69-.43.79-.34,1.63-.77-.17,0-.04-.22.22-.49.07-.07.14-.14.22-.21l.06-.05s0-.11,0-.16v-.35c.03-.45.09-.81.21-1.02.09.24.25.48.41.69.16.21.35.44.36.36,1.49-.72,2.33-1.02,3.72-1.71.15-.01.85-.28.61-.05.18-.14.33-.3.75-.52.91-.23-.93.5-.2.41,0-.15,1.02-.72,1.58-1.1-.28-.1-1.42.66-1.99,1.05-.03-.07,0-.17.09-.29l.08-.1.05-.05c0-.05-.02-.14-.02-.21-.04-.29-.05-.58-.06-.86-.01-1.14.24-2.2.74-3,.92-1.02,1.15,1.06,1.21.69,2.35-.69.17-4.25,2.71-3.64,1.33.89,1.23,2.38,1.82,3.18-.71.92-1.83-.07-2.44.28l1.08.21c-.1.55-.56,1.18-1.08.98.14.1.32.16.49.16.15-.07.33-.14.53-.23.4-.19.89-.43,1.41-.68,1.05-.52,2.22-1.1,3.09-1.45.14-.1.31-.23.44-.32.05-.07.13-.04.09-.16-.03-.12-.1-.22-.22-.3l-.45.42c-.95-.7.36-1.75-.52-1.86.39-.98.72-2.31,1.99-2.24l.81,1.15c-.2-.35-1.03-.44-1.13.07.15-.73,2.38.96,2.04-.85l-1.13-.53c.42-.94.7-2.55,1.81-2.54-1-.99-.14.22-1.48-.9,1.42,1.49-2.41.81-.58,2.29-1.49-1.38-1.5-.23-3.11-1.35.24.41.71.68-.17.77.03.14.02.32.02.44-.03,0-.04,0-.07-.01l.07.03c0,.08,0,.09.02.01.28.11.54.28.71.49.1,1.11-1.13,1.59-1.28,2.29-.55-.01-.06-.58-.54-.94l-.22,1.04c-.54-.94-2.03-1.15-1.23-2.14l-1,.33c-.85-.34-1.76-.28-2.03.34-.57-.05-.59,1.6-.59.63l-1.2,1.25-.15-.26c-1.58.43-2.16,3.08-4.87,1.77-.36.48-.7,1.06-1.7,1.08l-.66-.92c-.47.62-2.45-.23-2.2.94-2.07-2.47-3.44.66-4.82.63l.65,1.4c-.82.24-1.37.95-2.04,1.94l.68,1.22c-.31,1.4-2.56.05-3.8.75-.16-.53.24-.54.62-.35-3.01-2.22-2.22,3.59-4.69,2.09-.11.64-.45.59-.86.37.03-.02.05-.06.05-.11-.04,0-.1.02-.15.05-.27-.16-.56-.35-.84-.48.31.26.58.46.76.52-.26.15-.58.5-.82,1.02l-.88-1.35s-.05.04-.07.08c-.66-.35.02.82.77,1.8-.08.33-.13.7-.1,1.11-1.48-2.17-.66,1.27-2.33-1.01.33,1.34-1.56,1.84-.48,4.53-.18-.33-.38-.43-.17-.56-.59-.08-1.18-.17-1.21.75l-1.12-1.78.29,2.98c-1.16-.86-1.74-1.42-1.87-3.14-.3,2.9-.73,1.38-.82,4.17l-.55-1.26c-.41.25-.27,2.23-1.03,1.34-2.13-1.89-4.9,1.96-8.46.94,2.32,3.47-1.97-1.11-.63,1.81-.58-.81-1.17-1.14-1.15-2.1-.82,1.47-2.58-.49-2.23,2.37-.59-.82-.38-1.42-.77-1.89,0,.24-.02.96-.41.5-.39-.46-.19-.83-.18-1.31-1.21.77.02,3.56,1.21,6.16-1.25-.89-1.49-.56-1.12,1.35-.64-.73-1.46-1.42-.81-2.11-.51.1-3.34.11-2.36,2.19-.4-.45-.7.16-.7.45-1.06.37-1.24.23-2.12.92l.44.2c.85,2.68-.54.96-1.18,1.65l-.1-.27c-2.7-.88-.35,1.25-3.16.1l.87,1.49c1.49,3.4-2.56-1.16-2.96.63l.81.69c0,1.42-3.83-3.71-4.6-3.83-.27-.22-.04-.56.03-.86-2.46-1.19.81,2.11-.06,3.14-.74-.98-1.11-2.89-1.96-2.71-.8-.68-.4,4.62-2.45,3.07.64.71,1.27,1.43,1.07,2.32-.64.69-3.68-2.04-3.09.94-.21-.17-.36-.37-.46-.57-.26.98-1.39,2.12-1.06,3.71-3.14-4.89-2.48,4.43-4.84-.32l-1.71,1.22-.19-.51c-1.33.31-1.18,1.66-1.04,2.99-.43-.17-.45-.71-.55-.97-2.18-.03-2.25.28-2.55,3.32l-.89-1.4c.04,1.06-3.62-.98-4.44,1.64-.07-.17-.17-.47-.14-.75-.52,1.36-2.14.97-3.38.97-1.25,0-2.11.37-1.19,3.1l-.62,1.92c1.81-.46.85,2.31,1.93,2.8-.5.61-2.41-.67-1.75-1.33l.25.19c-1.02-2.77-2.47.13-3.3-1.64-3.1,1.84-6.84,2.19-9.8,3.82l1.24,1.62-1.08.47c-.48-.27-1.06-1.19-.3-1.54-.89-.79-.8,1.56-.63,1.95-1.79.1-.47-2.38-.93-2.18l-.52.48.24.13c-.12,1,.21,1.78-.71,2.19-.73-.03-.81-.9-1.06-.84-.06-.12-.16-.14-.36.15l-1.35.61,1.18,1.03c-.24.98-1.25.61.1,1.78-1.02-.92-2.32-.43-3.48.23-1.16.66-2.19,1.47-2.62,1.3-.36,1.34-1.17,1.75-2.19,2.21.36.1,1.16,1.32.22,1.61-1-2.79-2.12-.28-3.69-1.67,1.19.83-2.22,1.73-.46,2.8-.8.21-.49-.88-1.3-1.12-1.21,1.88-3.91,1.66-5.77,3.26.1.28.64.47.39,1.12-.58-.22-1.15-.42-1.71-.61-.33.39.34,1.65-.81,1.26.2.13.51.35.28.59-2.29.63-4.18,2.18-6.18,3.52-1.98,1.38-4.09,2.52-6.27,3.46.62-.18.28.09-.12.37.29-.14.11.24.23.34-.62.23-1.24.48-1.83.77-.17.46-1.76,1.24-1.84,1.53l.52-.37c-.62.63,1.29-.04,1.26.18.75-.58,2.34-.84,3.59-1.76.32-.11-.23.19-.04.16.31-.25.72-.48,1.52-.83l-.08.06c2.18-1.1,3.16-1.48,5.66-2.62l-.24-.02c.54-.25.67-.27.93-.36.52-.46-1.49.72-1.03.27.81-.12,3.73-1.84,4.34-1.81.82-.4-.31-.02.51-.41l.25-.03.16-.19c.54-.25.86-.29.91-.23-.13.06-.36.2-.5.27.74-.25,1.94-.98,2.19-1.07l-.81.34c2.19-1.16,4.96-2.38,7.02-3.61l-.19.02c1.58-.92,1.35-.58,3.12-1.52l-.06.05c.33-.24.79-.51,1.29-.75-.42.3.93-.28.37.1,1.71-1,.83-.53,1.88-1.35l.32-.03c.35-.3.36-.36,1.24-.84-.69.46.66-.12-.11.41,2.01-.69,2.68-1.63,3.72-1.7.71-.74-1.72.63-1.26.33-.46.1.6-.58,1.21-.85.6-.29,1.22-.11,2.73-.87-.15.07-.15.1-.3.17.61-.2,1.06-.66,1.82-.87.29-.38.91-.44.9-.74l-1.36.74c.76-.45,1.35-1.11,2.72-1.61-.08.1-.43.36-.68.53.42-.12.71-.41,1.14-.53.01.3-1.66.89-2.41,1.49.46-.1,1.51-.97,1.22-.49.44-.64,1.51-.69,2.41-1.46v.18c.16-.1.46-.34.76-.48l-.44.46c.75-.58,1.67-.64,2.43-1.13-1.67.83-.47,0-1.23.24,1.95-1.22,1.38-.19,3.65-1.4-.3.18-1.22.49-.76.17.45-.18,1.06-.41,1.37-.46,1.51-.78-.31-.04.29-.46.61-.07.71-.45,1.35-.84l.08.16c1.79-.76.3-.56,1.92-1.21l-.55.55.79-.46-.08.27c.82-.57,1.11-.68,2.01-1.06-.26-.01-.03-.35.73-.74.57-.16-.22.3.86-.27-.2.22-.4.48-.95.57-.02.08-.19.22-.22.3.62-.17,1.43-.68,1.83-.88-.16.07-.34.15-.45.17l1.47-1.01c.28-.06.11.08-.07.23.31-.18.5-.36.96-.61-.06.19.04.32-.59.71l1.43-.89c.13,0,.85-.22.68-.08.87-.33,1.92-1.27,3.08-1.72.04-.05.15-.14.37-.27,1.06-.49,2.06-.78,3.2-1.57l.82-.1c.94-.53-1.1.16.46-.73,1.1-.64.53,0,.96-.13.51-.4,1.36-1.14,2.51-1.46-.32.22-.61.32-.93.5ZM86.33,54.35c-.21.15-.62.49-.84.47.17-.33.42-.33.84-.47ZM104.22,44.91c-.14.14-.42.25-.75.33.21-.12.46-.24.75-.33ZM151.83,14.18s0,.04,0,.06c-.75-.21-.47-.12,0-.06ZM153.17,14.2c.04-.19-.04-.34-.16-.47.06.3-.18.42-.51.46.22.25.46.38.67,0ZM38.53,71.57l.35.18c-.29.59-.31.22-.35-.18Z"/>
      <path class="cls-1" d="M102.29,46.17c-.08,0-.11-.02-.15-.04-.08.07-.06.11.15.04Z"/>
      <path class="cls-1" d="M67.12,64.15l-.04.02s-.02.04-.02.05l.06-.06Z"/>
      <path class="cls-1" d="M139.28,27.77c-.23.09-.37.12-.46.13,0,.04.12.03.46-.13Z"/>
      <path class="cls-1" d="M158.25,10.22l-.6.51c.33-.18.56-.01.81.08-.13-.22-.43-.49-.21-.59Z"/>
      <path class="cls-1" d="M167.11,13.1c.08-.08.23-.07.28-.21l-.22-.37c-.21.12-.35.29-.37.43-.03.12.1.29.3.15Z"/>
      <path class="cls-1" d="M160.49,13.12c.45.77.75.3,1.17-.06-.03.02-.05.03-.09.04-.4-1.15-.75-.57-1.09.02Z"/>
      <path class="cls-1" d="M161.76,12.99c.13-.1.28-.19.44-.22-.16-.46-.23-.01-.44.22Z"/>
      <path class="cls-1" d="M154.29,13.06c.35.13-.41-1.17-.09-.87-.29-1.22-.91,1.96.09.87Z"/>
      <polygon class="cls-1" points="162.18 15.54 161.52 14.65 161.64 15.57 162.18 15.54"/>
      <path class="cls-1" d="M158.01,16.66l.91-.08c-.1-.17-.05-.32.03-.45-.49.19-1.12.23-.95.54Z"/>
      <path class="cls-1" d="M158.96,16.12c.26-.1.48-.23.54-.47-.13.07-.4.25-.54.47Z"/>
      <polygon class="cls-1" points="161.16 16.11 160.92 16.19 160.37 16.45 161.16 16.11"/>
      <path class="cls-1" d="M149.61,20.42l-.67.75c.12.46.48.6.71.28.06-.39.29-.7-.04-1.03Z"/>
      <path class="cls-1" d="M152.83,20.55c-.24.08-.27.06-.43.07l.07.2.36-.27Z"/>
      <path class="cls-1" d="M150.42,21.82c-.06.09-1.14.76-.08.22.06-.1.87-.56.08-.22Z"/>
      <polygon class="cls-1" points="137.71 27.86 137.92 27.75 137.87 27.67 137.52 26.99 136.81 25.6 137.41 27.05 137.71 27.76 137.71 27.86"/>
      <path class="cls-1" d="M127.02,34.23c1.03-.41.13-.33,1.07-.68.19-.2-.77.28-.57.09-.55.39-.89.49-.5.59Z"/>
      <path class="cls-1" d="M127.53,33.65c.08-.06.18-.13.28-.21-.16.11-.24.17-.28.21Z"/>
      <path class="cls-1" d="M1.52,94.7c-.2.12-.4.25-.6.39l.42-.19.18-.2Z"/>
      <path class="cls-1" d="M.5,95.72l-.21-.04c-.09.13-.19.26-.29.37.13-.1.38-.3.5-.33Z"/>
      <path class="cls-1" d="M88.34,53.93l.02-.08c-.13-.01-.28.06-.58.2l.56-.12Z"/>
      <polygon class="cls-1" points="79.61 58.06 79.76 57.99 79.38 57.92 79.61 58.06"/>
      <path class="cls-1" d="M72.48,61.92c.3-.14.63-.36.93-.49-.63.36-1.14.28-.93.49Z"/>
    </g>
  </g>
</svg>