<?xml version="1.0" encoding="UTF-8"?>
<svg id="Layer_2" data-name="Layer 2" xmlns="http://www.w3.org/2000/svg" viewBox="0 0 193.85 96.9">
  <defs>
    <style>
      .cls-1 {
        fill: #231f20;
        stroke-width: 0px;
      }
    </style>
  </defs>
  <g id="Layer_4" data-name="Layer 4">
    <g>
      <path class="cls-1" d="M193.63.11c.12-.06.19-.09.23-.11-.48.22-.21.1-.23.11Z"/>
      <polygon class="cls-1" points="188.91 2.38 188.99 2.33 188.31 2.69 188.91 2.38"/>
      <path class="cls-1" d="M184.5,4.5c.45-.14,1.59-.78,2.39-1.14l.13-.05.34-.21c-.95.46-2.18,1.09-2.86,1.4Z"/>
      <path class="cls-1" d="M182.07,5.47c.16-.04-.5.26.56-.25-.05.02-.07.03-.1.04-.1.04-.23.1-.45.21Z"/>
      <path class="cls-1" d="M182.52,5.26c.47-.22-.32.12,0,0h0Z"/>
      <path class="cls-1" d="M180.37,6.28l.6-.32c-.14.04-.69.29-.49.18-.62.31-.48.27-.11.14Z"/>
      <path class="cls-1" d="M179.82,6.62l.31-.16c-.06.02-.15.05-.31.16Z"/>
      <path class="cls-1" d="M180.79,6.11l-.66.34c.1-.03.12,0,.3-.16-.04.05.08-.04.36-.19Z"/>
      <path class="cls-1" d="M181.18,5.95c.35-.14.8-.34.2-.02,1.17-.57.97-.54-.2.02Z"/>
      <path class="cls-1" d="M184.31,4.68l.47-.21.39-.21c-.19.11-.89.41-.85.42Z"/>
      <path class="cls-1" d="M176.51,8.01s.24-.03.3-.02l.44-.24c-.24.09-.69.28-.74.26Z"/>
      <path class="cls-1" d="M176.81,7.99l-.66.36c.61-.28.71-.35.66-.36Z"/>
      <polygon class="cls-1" points="179.76 6.78 180.84 6.18 179.55 6.88 179.76 6.78"/>
      <polygon class="cls-1" points="173.9 9.21 174.26 8.97 173.62 9.38 173.9 9.21"/>
      <path class="cls-1" d="M172.18,10.02c.26-.19-.44.08-.16-.09-.47.22-.84.46-1.18.67.37-.2.78-.38,1.33-.58Z"/>
      <path class="cls-1" d="M170.28,10.95c.18-.1.37-.22.57-.35-.2.11-.39.22-.57.35Z"/>
      <path class="cls-1" d="M174.99,8.88c-.06,0-.18.01-.57.17l.31-.05c.08-.04.17-.08.27-.12Z"/>
      <path class="cls-1" d="M174.73,9h-.01c-.29.14-.49.23-.58.27.07-.03.25-.11.59-.27Z"/>
      <path class="cls-1" d="M175.05,8.85s-.04.02-.07.03c.03,0,.05,0,.07-.03Z"/>
      <path class="cls-1" d="M177.96,7.57c-.38.22-1.19.66-.36.33.26-.18-.21,0,.36-.33Z"/>
      <path class="cls-1" d="M175.43,8.78l.73-.33s-.17.02.02-.09l-.75.42Z"/>
      <polygon class="cls-1" points="175.09 8.98 175.43 8.78 175.16 8.91 175.09 8.98"/>
      <path class="cls-1" d="M171.56,10.46c-.29.18-.63.35-1.01.54.42-.18.85-.37,1.26-.56.04-.05.2-.19-.24.02Z"/>
      <path class="cls-1" d="M173.1,9.76s-.05.03-.07.04c.05-.01.08-.03.07-.04Z"/>
      <polygon class="cls-1" points="166.75 12.78 166.82 12.77 166.83 12.74 166.75 12.78"/>
      <path class="cls-1" d="M171.88,10.41c.32-.13.49-.24.66-.35-.23.12-.47.24-.73.36-.02.02-.02.03.08-.02Z"/>
      <path class="cls-1" d="M169.24,11.49c.18-.06.37-.13.56-.2-.17.04-.52.15-.56.2Z"/>
      <path class="cls-1" d="M172.92,9.82l.04-.03c-.11.03-.09.03-.04.03Z"/>
      <path class="cls-1" d="M172.92,9.82c-.15.09-.27.17-.39.24.18-.1.35-.19.5-.27-.04.01-.08.02-.12.03Z"/>
      <path class="cls-1" d="M165.96,14.03c0-.13.76-.62,1.51-.86.65-.41.05-.5-.65-.4,0,.05.02.09-.66.49.28-.06,1.64-.63,1.08-.25-.91.51-.79.34-1.27.51.45-.06-1.1.77-.8.87l.78-.48s-.24.22,0,.13Z"/>
      <path class="cls-1" d="M168.19,12.14l.29-.15c-.34.14-.6.22-1.08.35-.47.28-.55.36-.57.41l1.45-.67-.09.06Z"/>
      <path class="cls-1" d="M169.79,11.36c-.18.2-.86.58-.38.48.85-.42.56-.37,1.05-.66-1.37.68.37-.24-.66.18.26-.15.51-.27.74-.38-.25.1-.5.2-.74.3.01,0,.02,0,.03,0h0s0,0,0,0c.07-.02.09-.02.02,0,0,0-.02.01-.03.02,0,.02-.02.04-.04.07-.41.17-.08,0,.04-.07,0,0,.01-.02,0-.02h0s-1.36.71-1.36.71c.3-.13.67-.3,1.32-.62Z"/>
      <path class="cls-1" d="M176.94,8.41s-.05,0-.05,0c-.08.05-.12.08.05,0Z"/>
      <path class="cls-1" d="M176.35,8.65c.1-.06.17-.13.49-.28.29-.12.01.03.04.05.19-.12.66-.39.03-.12l-.09.06c-.57.25-1.33.51-1.24.45.2-.01.36-.04.76-.16Z"/>
      <path class="cls-1" d="M173.05,10.08l-1.13.6.62-.21-.05-.03c.66-.3.49-.29.56-.36Z"/>
      <polygon class="cls-1" points="166.6 12.79 166.69 12.6 166.1 13.08 166.6 12.79"/>
      <polygon class="cls-1" points="165.1 13.51 165.1 13.38 164.73 13.63 165.1 13.51"/>
      <path class="cls-1" d="M82.67,58.57l-.27.29c.14-.12.22-.21.27-.29Z"/>
      <path class="cls-1" d="M85.09,57.33l-.04-.23c-.06.17-.06.27.04.23Z"/>
      <path class="cls-1" d="M128.12,30.91c-.61.01-1.34-.09-1.14.16l.29.19c.32-.21.6-.31.86-.35Z"/>
      <path class="cls-1" d="M103.88,44.99c.06.01.13.03.2.04.06-.18.11-.35.16-.51-.11.14-.23.3-.36.47Z"/>
      <path class="cls-1" d="M104.28,46.67l-.76.1c.19,0,.43-.02.76-.1Z"/>
      <path class="cls-1" d="M69.78,66.04l-.13.73c.6-.33.21-.45.13-.73Z"/>
      <path class="cls-1" d="M149.7,20.82c-.46.13-.82.26-1.12.39.57-.14,1.06-.18,1.12-.39Z"/>
      <path class="cls-1" d="M81.23,53.29c-.17.18-.21.31-.15.41.18-.18.25-.32.15-.41Z"/>
      <path class="cls-1" d="M147.34,21.79c.09-.02.16-.04.25-.06.3-.18.6-.35.99-.52-.42.1-.88.25-1.24.58Z"/>
      <path class="cls-1" d="M21.86,90.81c-.05-.01-.1,0-.15-.03.04.1.09.08.15.03Z"/>
      <path class="cls-1" d="M4.13,90.48c.12-.11.34-.22.55-.34-.13,0-.3.09-.55.34Z"/>
      <path class="cls-1" d="M159.01,16.29c.32-.16.04-.04,0,0h0Z"/>
      <path class="cls-1" d="M160.82,16.09c-.06.05-.1.09-.09.13.01-.04.04-.09.09-.13Z"/>
      <path class="cls-1" d="M144.78,24.52h-.03c.11,0,.09,0,.03,0Z"/>
      <path class="cls-1" d="M159.52,16.13c-.13.04-.27.09-.43.15.07-.02.2-.06.43-.15Z"/>
      <path class="cls-1" d="M159.42,16.1c.11-.05.2-.08.29-.12.03-.04-.01-.04-.29.12Z"/>
      <path class="cls-1" d="M158.56,16.51c.18-.09.36-.16.52-.23-.07.02-.1.02-.08.01-.09.05-.22.11-.44.22Z"/>
      <path class="cls-1" d="M46.62,75.71s-.06,0-.1-.02c-.19.41-.07.3.1.02Z"/>
      <path class="cls-1" d="M121.34,37.89s.02-.02.03-.03c-.02,0-.04,0-.05.01l.02.02Z"/>
      <path class="cls-1" d="M120.33,38.7c.29-.62.59-.72.99-.83l-.8-.66-.19,1.49Z"/>
      <path class="cls-1" d="M76.97,61.75h1c-.6,1.22-1.4,1.35-.36,1.56-.63-1.55,2.97-1.8,2.35-3.32l.67.03c-.16.06-.14.16-.29.23,1.35.16.23-1.44,1.63-1.92.51-.13.93-.09.7.24l.84-.88c.31-.13.36.16.05.28l1.49-.92v.05c.12-.33.45-.93.63-1.2.49,0-.12.25.06.37l.69-.78c.53.17-.01.89-.63,1.15,1.48.95.54-.71,2.65-.83l-.72.6c.9.49,1.39-.12,2.53-.14-.33-.12-2.41-.22-1.66-1.05.31-.04.68-.17,1.05-.7.24.47.67.1,1.27-.25l.27.64c.57-.53.36-.82.61-1.3.77-.33,1.15.07,1.52.37,1.22-.53-1.19-.32.15-1.18,1.09-.28,1.66-.9,2.66-1.86.79-.16.06.42.39.46l.38-.79c.15-.07.18.1.19.19.42-.45-.25-.6.48-1.18-.1-.74,2.12.06,2.76-1.17.33.03.05.41.24.58,1.14-1.18,1.01-.95,1.83-2.14l1.14-.14c-.91-.04-.25-.99.35-1.78-.35-.07-.65-.13-.84-.14l1.13-.91c.2.01.16.26.06.58.06-.09.13-.17.17-.24.55-.03.47.39.29.85l-.62-.1c-.15.48-.26.99-.04,1.28.05-.1.18-.24.34-.36-.04.13-.05.24.01.27.07.03.14-.15.28-.39l.58.45-.05-.27,1.83-.49c.88-1.2,1.49-2.57,3.26-3.74-.26.64.23.72.45,1.21-.77-.25-1.34.97-2.36,1.37.53-.21.54.09.45.24l1.49-1.37c.16.42.52.11,1.05.03-.73-.6,1.03-1.18,1.62-1.78.17.23.13.58-.76.96,1.23.08.78-1.53,1.95-1.52-.21.11-.34.13-.36.3.38-.48,1.67-.91,1.49-.55l-.21.11c1.43-.63,4.24-2.19,4.15-2.89.05.07.17.81.15.97.49-1.1,1-2.18,1.51-3.23.03.61,1.45,1.35.44,2.23.37-.1.82-.24,1.43-.77-.26.05-.92-.42-.63-.62,1.12.11.74,0,2.01-.09-.39.07-.39-.87.16-1.12-.03.15.41.71.25.89l.97-1.41c-.27.3.25.64.64.69-.21-.07,1.16-.59,1.48-.84l-.65.13c1.55-.68,1-1.75,2.52-2.46-.11.23-.02,1.09.78.78.17-.53.73-2.43,1.95-3.32l.35.06.92-.71c-.4.78-1.67,2.72-2.42,3.65.64-.14.27.15,1.1-.31.39.02-.32.51-.56.66l2.01-.92c-.28-.34,1.3-1.17,1.08-1.44l-1.93,1.51c-.28-.35.69-1.73,2.12-2.36.43-.03.06.79.15.9.12-.22,1.2-.93,1.37-.91l-.49.5c.84-.27,1.02-1.13,2.12-1.28.33-.14,1.18-.05,1.13-.29-.72-.12-1.44-1.31-1.23-1.78.13-.03,1.9-.45,2.36-.45.68.03-.44,1.12.14,1.15-.03-.1.21-.37.31-.46.38-.1,0,.35.71-.07-.04-.4,1.51-.74.21-.46.67-.46.8-.32,1.63-.77-.37-.07.41-1.09,1.09-1.54,0,.1.21.12.31.13,1.49-.71,2.36-.97,3.73-1.67.16,0,.87-.25.65.02.17-.15.31-.34.73-.56.94-.18-.93.52-.15.49-.03-.19.98-.79,1.54-1.19-.31-.15-1.42.66-1.98,1.07-.18-.35.7-1.25,2.07-2.1,1.11-.64.61-.03.78-.17,2.19-1.01,1.57-1.44,3.49-2.09.81-.16.22.36.45.42-.9.54-1.5.59-2.13.91l.83-.29c-.27.21-.86.57-1.23.68.68-.12,3.66-1.78,5.39-2.46.27-.21.75-.52.47-.47l-.51.29c-.56.1.9-.68.2-.42.66-.45,1.38-.98,2.42-1.38l.28.09s-.71.21-.96.4c.38-.28,1.65-.5,1.99-.96l-.76.22c.67-.44,1.46-1.04,2.38-1.4-.49.03-.19.12-.93.22.67-.01-2.28,1.06-1.27.91-.77.07-1.17.43-2.13.61.06.05.36-.02-.4.3-.02.03-.09.1-.14.13-.02,0-.03.01-.05.02h.05s-.03.02.02-.02c.19-.06.35-.09.43-.08-.3.32-1.48.88-1.85,1.16-.46.18.15-.17-.13-.12l-.54.41c-.13-.12-1.3.3-.3-.28l-.94.43c-.6.17-1.38.49-1.82.78-.46.17-1.03.71-.71.4l-1.42.8-.04-.04c-1.47.66-2.84,1.72-4.67,2.16-.47.28-.94.58-1.79.91l-.25-.1c-.6.36-1.98.7-2.16,1.02-.92-.17-3.12,1.31-4.27,1.74l.09.27c-.77.34-1.46.76-2.36,1.31l.18.21c-.71.58-2.17.83-3.45,1.46.04-.14.38-.27.64-.32-1.82.15-3.04,1.96-4.64,2.2-.3.26-.57.35-.84.4.03-.02.06-.03.08-.05-.04.02-.09.04-.14.06-.18.03-.36.05-.55.08.18,0,.35-.01.48-.05-.27.13-.66.36-1.02.62l-.32-.21s-.06.03-.09.05c-.45.07-.24.29.08.41-.18.14-.33.29-.44.43-.56-.33-.96.66-1.65.35-.14.38-1.91,1.14-1.84,1.8-.05-.07-.18-.04.03-.15-.47.15-.95.3-1.27.65l-.39-.32-.69,1.02c-.71.03-1.03,0-.61-.6-1.16,1.17-1.05.73-2,1.81l-.08-.31c-.42.22-.92.92-1.29.82-1.23-.08-4.77,2.22-7.5,2.86.93.68-1.35.14-1.09.89-.25-.15-.66-.11-.35-.49-1.15.81-2.07.54-2.63,1.57-.26-.16.1-.46-.09-.53-.08.1-.3.38-.5.31-.2-.07.09-.28.24-.47-1.27.64-1.05,1.4-.81,2.11-.8,0-1.11.2-1.36.87-.33-.11-.83-.16-.07-.62-.46.19-2.9.98-2.67,1.56-.21-.07-.65.26-.73.38-1.02.45-1.14.44-2.09.97l.32-.04c-.05.88-.74.55-1.49,1.02v-.08c-2.09.38-.68.63-2.77.91l.32.4c.31,1.05-1.87.21-2.73,1.08l.51.08c-.4.62-2.26-.57-2.9-.43-.17-.03.13-.23.27-.38-1.8.12.11.7-.94,1.38-.37-.23-.15-.97-.94-.68-.52-.1-1.65,2.13-3,1.96.36.16.71.31.29.76-.75.48-2.66.01-2.96,1.21-.14-.03-.21-.08-.25-.14-.5.51-1.8,1.32-1.93,1.97-1.45-1.51-3.34,2.7-4.16,1.03l-1.83.99-.04-.2c-1.26.46-1.47,1.07-1.69,1.69-.34.02-.21-.24-.24-.35-1.92.49-2.07.63-3.09,2.23l-.44-.5c-.23.53-2.99.29-4.36,1.8-.02-.08-.04-.21.06-.36-1.57,1.64-5.48.49-5.07,3.08l-.99,1.17c1.73-.62.25,1.11,1.11,1.16-.58.46-2.01.13-1.28-.37l.18.05c-.3-1.34-2.25.57-2.62-.27-3.21,1.62-6.72,2.44-9.79,3.83l.85.84-1.09.45c-.4-.1-.77-.61.01-.93-.68-.38-1.03,1.08-.94,1.32-1.69.3-.01-1.46-.48-1.27l-.58.37.2.05c-.29.65-.12,1.12-1.05,1.5-.68.07-.61-.49-.86-.43-.04-.07-.13-.07-.36.14l-1.38.55.94.57c-.39.69-1.28.56-.2,1.2-1.62-1.01-5.23,1.88-6.02,1.69-.52,1.02-1.34,1.41-2.39,1.82.34.06.98.96.05,1.27-.69-2.17-2.03-.1-3.47-1.23,1.12.67-2.37,1.43-.68,2.35-.81.19-.43-.75-1.23-.97-1.33,1.64-4.09,1.3-6.11,2.59.11.3.68.56.43,1.2l-1.84-.87c-.36.34.43,1.83-.84,1.21.23.19.57.47.33.7-2.45.31-4.46,1.62-6.54,2.8-2.09,1.17-4.25,2.21-7.09,1.82.88.32.52.56.09.79.36,0,.37.76.64,1.15l-2.37-.3c.26,1.32-1.88,1-1.5,2.21l.46-.48c-.09,1.7,2.52,2.43,3.25,4.17.09-1.91,3.29,1.07,3.59-1.75.47.18.01.67.36.97-.01-.89.33-1.25,1.27-1.33v.22c2.08-1.29,3.36-1.08,6.02-1.91l-.57-.7c.58-.17.81.02,1.15.09,0-1.51-1.5.7-1.62-.91,1.5,1.25,3.71-1.88,5.08-.33.81-.41-.68-.77.13-1.18l.45.37-.11-.73c.58-.17,1.14.29,1.37.68-.15.02-.31.31-.43.41.96.2,1.83-1.21,2.15-1.15l-.92.11c1.97-1.59,4.95-2.39,6.61-4.43l-.33-.26c1.31-1.47,1.49-.3,3.12-1.51l-.02.11c.19-.52.58-.94,1.09-1.15-.25.63,1.23.32.85,1.07,1.43-1.58.61-.98,1.16-2.81l.54.41c.15-.7.05-.98.88-1.57-.5.84.98.54.47,1.58,2.45.21,2.18-2.62,3.89-1.36.12-1.92-2.02.02-1.7-.55-.65-.28.16-1.47.82-1.62.62-.27,1.95,1.36,3.44.54-.15.07-.11.19-.26.26.74.07.85-1.07,1.83-.83-.05-1.07.92-.42.48-1.57l-1.25.97c.63-.7.73-2.35,2.33-2.38,0,.27-.23.75-.41,1.05.54.13.62-.59,1.17-.46.43,1.14-1.56,1.1-1.97,2.38.63.25,1.18-1.62,1.35-.21-.15-1.82,1.57-.59,2.01-2.26l.25.68c.11-.19.29-.66.59-.8l-.12,1.11c.47-1.14,1.89-.22,2.48-1.02-1.63.89-.75-.57-1.68-.67,1.61-1.91,2,1.05,4.11-.46-.26.25-1.34.24-1-.31.5-.1,1.19-.16,1.61.02,1.44-.93-.55-.51-.1-1.23.89.48.59-.7,1.13-1.28l.32.62c1.92-.5-.19-1.53,1.6-1.85l-.23,1.19.7-.64.18.78c.62-.98.96-.99,1.91-1.25-.41-.32-.43-1.16.32-1.57.7.09,0,.72,1.03.07-.06.5-.09,1.11-.83.81.05.22-.05.5,0,.72.76.11,1.45-.65,1.83-.86-.16.06-.36.12-.49.08l1.15-1.64c.36.09.25.37.14.65.28-.23.37-.62.81-.91.12.54.39,1.01-.15,1.59l1.22-1.32c.2.15,1.04.16.94.43.96-.17,1.57-1.98,2.84-2.2.01-.12.08-.26.28-.45,1.08-.44,2.26-.37,3.17-1.63l1.09.43c.86-.69-1.44-.51,0-1.64,1-.84.76.45,1.26.46.36-.7.94-2,2.28-1.91-.27.33-.59.35-.89.58ZM88.58,55.22c-.18.22-.48.77-.79.57-.02-.69.32-.53.79-.57ZM106.01,44.88c-.11.22-.4.29-.77.29.2-.14.45-.25.77-.29ZM155.57,18.07l-.02.02c-.55.18-.36.12.02-.02ZM156.69,17.63c.1-.07.08-.09.02-.1-.05.08-.3.2-.58.31.1,0,.25-.03.56-.22ZM40.98,72.85l.3.08c-.38.42-.33.18-.3-.08Z"/>
      <path class="cls-1" d="M104.24,46.47c-.1-.03-.15-.1-.21-.17-.06.11-.02.19.21.17Z"/>
      <path class="cls-1" d="M69.8,65.91s-.03,0-.04.01c0,.04,0,.08.01.12l.02-.13Z"/>
      <path class="cls-1" d="M140.99,27.59c-.24.08-.38.1-.48.09.02.07.14.06.48-.09Z"/>
      <path class="cls-1" d="M162.28,14.68l-.68.36c.33-.16.47-.19.65-.25-.03-.03-.19-.01.03-.11Z"/>
      <path class="cls-1" d="M168.65,12.58c.09-.06.21-.11.3-.17l-.05-.04c-.42.21-.7.41-.25.21Z"/>
      <path class="cls-1" d="M163.15,14.84c.11.09.52-.16,1-.42l-.09.04c.06-.22-.42.07-.91.37Z"/>
      <path class="cls-1" d="M164.26,14.37c.15-.08.3-.15.44-.22.03-.09-.19.07-.44.22Z"/>
      <path class="cls-1" d="M158.01,16.89c.25-.07.06-.24.22-.25.17-.29-1.43.93-.22.25Z"/>
      <polygon class="cls-1" points="163.73 15.03 163.49 14.97 163.28 15.22 163.73 15.03"/>
      <path class="cls-1" d="M159.89,16.8l.79-.34s.07-.08.18-.15c-.48.23-1.01.45-.97.49Z"/>
      <path class="cls-1" d="M160.86,16.31c.25-.12.48-.24.61-.33-.13.07-.42.21-.61.33Z"/>
      <polygon class="cls-1" points="162.7 15.59 162.46 15.67 161.92 15.93 162.7 15.59"/>
      <path class="cls-1" d="M151.62,20.84l-.81.47c-.05.11.2.04.5-.14.18-.15.47-.33.31-.33Z"/>
      <path class="cls-1" d="M154.41,20.09c-.24.08-.28.04-.44.05l.09.24.35-.29Z"/>
      <path class="cls-1" d="M152.01,21.39c-.05.11-1.11.82-.06.26.05-.11.86-.59.06-.26Z"/>
      <polygon class="cls-1" points="139.28 27.39 139.49 27.28 139.2 26.78 139.28 27.39"/>
      <path class="cls-1" d="M128.94,34.45c1.05-.37.04-.51,1.02-.79.16-.27-.8.23-.63-.02-.52.46-.87.54-.39.81Z"/>
      <path class="cls-1" d="M129.33,33.64c.08-.07.17-.16.26-.25-.15.13-.22.2-.26.25Z"/>
      <polygon class="cls-1" points="1.29 90.63 .46 90.56 1.18 90.97 1.29 90.63"/>
      <path class="cls-1" d="M.73,92.56l-.73-1.09.14,1.23c.12-.12.35-.36.59-.15Z"/>
      <path class="cls-1" d="M90.96,55.58l-.03-.18c-.18-.11-.33-.05-.64.09l.67.09Z"/>
      <polygon class="cls-1" points="82.21 59.66 82.36 59.59 81.78 59.12 82.21 59.66"/>
      <path class="cls-1" d="M75.48,64.32c.3-.13.57-.46.88-.59-.57.46-1.37-.19-.88.59Z"/>
    </g>
  </g>
</svg>