<?xml version="1.0" encoding="UTF-8"?>
<svg id="Layer_2" data-name="Layer 2" xmlns="http://www.w3.org/2000/svg" viewBox="0 0 192.05 96.06">
  <defs>
    <style>
      .cls-1 {
        fill: #231f20;
        stroke-width: 0px;
      }
    </style>
  </defs>
  <g id="Layer_6" data-name="Layer 6">
    <g>
      <path class="cls-1" d="M191.84.15c.31-.08.17-.12.21-.15-.52.15-.18.17-.21.15Z"/>
      <path class="cls-1" d="M187.01,2.19l.04-.12c-.21.16-.41.33-.61.51l.57-.39Z"/>
      <path class="cls-1" d="M182.44,3.99c.7.37,1.6-.76,2.51-.89l.19.05.19-.51c-.98.42-2.12,1.22-2.88,1.35Z"/>
      <path class="cls-1" d="M179.32,3.58c.28.2-.44.39.62-.11-.07,0-.09-.02-.14-.03-.1.04-.24.08-.49.14Z"/>
      <path class="cls-1" d="M179.81,3.44c.49-.18-.43-.1,0,0h0Z"/>
      <path class="cls-1" d="M177.6,4.35l.53-.46c-.21-.11-.82.04-.66-.15-.61.34-.38.47.13.61Z"/>
      <path class="cls-1" d="M177.24,5.08l.28-.23c-.09-.05-.19-.04-.28.23Z"/>
      <path class="cls-1" d="M178.12,4.38l-.6.47c.15.08.27.3.28-.2.05.23.08-.02.31-.27Z"/>
      <path class="cls-1" d="M178.58,4.35c.44.02.94-.06.42.4,1.18-.55.78-.92-.42-.4Z"/>
      <path class="cls-1" d="M182.5,4.67l.54-.05.31-.36c-.16.18-.97.25-.86.41Z"/>
      <path class="cls-1" d="M173.36,5.32c.05.19.45.39.61.59l.38-.37c-.3-.03-.82.02-.98-.23Z"/>
      <path class="cls-1" d="M173.96,5.91l-.56.57c.65-.21.69-.39.56-.57Z"/>
      <path class="cls-1" d="M177.53,5.93c.29-.34.58-.67.88-1-.37.35-.74.72-1.1,1.1l.22-.1Z"/>
      <polygon class="cls-1" points="170.61 6.24 170.8 5.66 170.41 6.58 170.61 6.24"/>
      <path class="cls-1" d="M168.85,6.96c.11-.49-.74-.51-.54-.86-.46.23-.71.71-.94,1.16.31-.32.76-.42,1.47-.3Z"/>
      <path class="cls-1" d="M166.97,7.94c.15-.17.27-.42.4-.68-.17.17-.31.38-.4.68Z"/>
      <path class="cls-1" d="M172.16,6.85c-.11-.09-.36-.34-.82-.32l.54.42c.09-.03.18-.06.28-.1Z"/>
      <path class="cls-1" d="M171.9,6.96h-.02c-.31.09-.52.16-.61.19.08-.02.27-.08.63-.19Z"/>
      <path class="cls-1" d="M172.23,6.82s-.05.02-.07.02c.05.04.08.05.07-.02Z"/>
      <path class="cls-1" d="M175.5,6.26c-.28.42-.98,1.08.04,1.13.13-.45-.46-.49-.04-1.13Z"/>
      <path class="cls-1" d="M172.9,7.33l.8-.18c-.08-.13-.31-.27-.18-.49l-.62.67Z"/>
      <polygon class="cls-1" points="172.62 7.65 172.9 7.33 172.6 7.4 172.62 7.65"/>
      <path class="cls-1" d="M168.53,8c-.2.38-.54.54-.91.74.48-.05.95-.17,1.37-.34-.03-.2,0-.6-.45-.4Z"/>
      <path class="cls-1" d="M170.19,7.54s-.04.04-.06.06c.07.03.11.03.06-.06Z"/>
      <polygon class="cls-1" points="163.72 10.31 163.84 10.4 163.8 10.29 163.72 10.31"/>
      <path class="cls-1" d="M169.1,8.48c.37-.02.49-.24.59-.48-.21.15-.45.29-.71.4.01.09.04.15.12.08Z"/>
      <path class="cls-1" d="M166.01,8.64c.23.06.47.1.72.11-.26-.12-.74-.3-.72-.11Z"/>
      <path class="cls-1" d="M169.95,7.49s.02-.03.04-.04c-.16-.08-.12-.03-.04.04Z"/>
      <path class="cls-1" d="M169.95,7.49c-.13.14-.19.33-.26.51.17-.12.32-.25.44-.39-.06-.02-.13-.07-.18-.11Z"/>
      <path class="cls-1" d="M164.65,15.02c-.25-.64.28-1.59,1.3-1.3.46-.79-.94-2.47-2.11-3.32.11.27.23.51-.32,1.17.42.23,1.98.05,1.64.86-.79.75-.88.15-1.5.04.77.57-.65,1.67.12,2.71l.62-.81c.1.17-.06.59.25.64Z"/>
      <path class="cls-1" d="M165.26,9.89l.27-.19c-.39.04-.75-.09-1.44-.37-.36.49-.35.75-.29.96l1.52-.53-.06.13Z"/>
      <path class="cls-1" d="M166.87,9.14c.07.7-.52,1.28.25,1.75.85-.43.36-.78.75-1.26-1.34.75.24-.5-.96-.42.23-.22.47-.35.69-.47-.29.03-.59.04-.88.02.02,0,.03.02.05.02h0s0,0,0,0c.1.05.14.09.05.07,0,0-.02.02-.02.02.03.09.04.17.05.25-.48.04-.14-.13-.05-.25-.01-.03-.01-.06-.03-.1h0s-1.26.91-1.26.91c.35-.04.71-.21,1.35-.55Z"/>
      <path class="cls-1" d="M175.32,8.78c-.06-.02-.08-.06-.1-.09-.06.1-.07.16.1.09Z"/>
      <path class="cls-1" d="M174.6,8.76c.07-.12.05-.36.41-.46.36.01.12.24.21.39.13-.23.52-.68-.22-.63l-.07.11c-.64.1-1.69-.23-1.63-.34.4.39.71.66,1.3.93Z"/>
      <path class="cls-1" d="M170.82,9.22l-1.03.8.84.22-.18-.28c.72-.19.4-.48.37-.74Z"/>
      <polygon class="cls-1" points="163.42 10.05 163.24 9.3 163.03 10.54 163.42 10.05"/>
      <polygon class="cls-1" points="161.92 10.76 161.67 10.12 161.45 10.66 161.92 10.76"/>
      <path class="cls-1" d="M80.53,57.9l-.31.22c.15-.1.24-.17.31-.22Z"/>
      <path class="cls-1" d="M83,56.76v-.14c-.08.11-.1.18,0,.14Z"/>
      <path class="cls-1" d="M125.08,28.43c-.81-.41-1.86-1.13-1.4-.37l.54.7c.27-.32.57-.38.87-.33Z"/>
      <path class="cls-1" d="M102.35,45.55c.07.03.15.06.22.09.03-.24.05-.47.07-.68-.09.18-.19.38-.3.59Z"/>
      <path class="cls-1" d="M103.09,47.9l-.84-.06c.21.05.48.08.84.06Z"/>
      <path class="cls-1" d="M67.59,65.28l-.21.56c.58-.38.24-.37.21-.56Z"/>
      <path class="cls-1" d="M146.42,17.85c-.59-.12-1-.09-1.32,0,.75.23,1.52.73,1.32,0Z"/>
      <path class="cls-1" d="M80.22,54.89c-.18.15-.24.24-.21.3.19-.15.29-.26.21-.3Z"/>
      <path class="cls-1" d="M143.86,18.44c.12.05.21.05.32.09.24-.28.5-.54.91-.67-.56-.17-1.1-.19-1.24.58Z"/>
      <path class="cls-1" d="M19.81,90.33s-.1,0-.15-.02c.02.08.08.06.15.02Z"/>
      <path class="cls-1" d="M3.77,93.38c.12-.1.33-.24.53-.38-.11.05-.27.16-.53.38Z"/>
      <path class="cls-1" d="M155.57,13.03c.3-.19.01-.1,0,0h0Z"/>
      <path class="cls-1" d="M158.59,15.23c-.03.11-.03.24.05.41-.06-.19-.07-.32-.05-.41Z"/>
      <path class="cls-1" d="M143.28,25.13h-.03c.18.13.14.1.03,0Z"/>
      <path class="cls-1" d="M156.23,13.16c-.17-.04-.35-.05-.52-.04.1.03.26.05.52.04Z"/>
      <path class="cls-1" d="M155.99,12.84c.13-.02.23-.03.32-.05-.02-.14-.1-.2-.32.05Z"/>
      <path class="cls-1" d="M155.14,13.27c.18-.09.37-.13.56-.15-.09-.02-.14-.05-.13-.09-.09.05-.22.12-.43.23Z"/>
      <path class="cls-1" d="M45.21,76.5s-.06-.01-.1-.03c-.17.45-.06.33.1.03Z"/>
      <path class="cls-1" d="M120.79,40.4s0-.04.02-.05c-.02,0-.04,0-.06,0l.04.06Z"/>
      <path class="cls-1" d="M119.9,41.46c.05-1.12.38-1.14.85-1.12l-1.42-1.91.58,3.03Z"/>
      <path class="cls-1" d="M74.73,60.89l.89-.2c-.78.85-1.51,1.11-.63,1.01-.27-.82,3.02-1.69,2.77-2.46l.6-.11c-.15.07-.16.12-.31.19,1.2-.16.5-.9,1.87-1.45.49-.17.87-.21.59.03l.94-.68c.31-.13.3.04,0,.17l1.55-.8v.03c.16-.23.58-.65.79-.85.46-.07-.16.18,0,.23l.78-.6c.46.05-.16.58-.78.83,1.22.43.62-.54,2.64-.84l-.78.47c.78.25,1.35-.21,2.46-.27-.32-.09-2.3.01-1.44-.61.3-.06.68-.17,1.11-.58.16.32.63.02,1.26-.26l.18.46c.63-.41.46-.61.76-.99.79-.28,1.14.03,1.48.28,1.29-.4-1.16-.26.26-.94,1.12-.23,1.76-.7,2.82-1.54.82-.1.05.4.39.45l.41-.71c.16-.05.18.11.19.19.45-.4-.25-.6.51-1.12-.05-.38.49-.33,1.15-.31.65.02,1.42.01,1.73-.63.35.09.08.46.29.69,1.16-1.13,1.04-.89,1.81-2.19l1.24.06c-1.01-.26-.41-1.32.09-2.29-.39-.16-.73-.3-.93-.34l1.04-1.09c.22.05.23.4.19.84.05-.11.1-.22.14-.31.6.07.6.66.5,1.26l-.71-.27c-.07.63-.11,1.29.18,1.71.04-.13.16-.27.32-.4-.02.17-.02.3.06.37.09.06.14-.17.25-.46l.74.76-.1-.39c.66-.05,1.33-.1,2.01-.13.77-1.44,1.08-3.39,2.75-4.76-.09.99.52,1.29.94,2.2-1-.71-1.29,1.06-2.4,1.29.57-.13.66.33.6.53.46-.52.92-1.06,1.37-1.61.32.75.65.38,1.27.49-1.08-1.31.84-1.57,1.33-2.36.3.49.39,1.09-.56,1.36,1.55.71.37-2.35,1.8-1.81-.21.11-.36.09-.32.39.27-.69,1.68-.9,1.62-.3l-.21.11c1.52-.46,4.34-1.98,3.85-3.49.1.17.66,1.77.71,2.09.07-1.95.11-3.95.14-5.98.39,1.33,2.71,3.86,1.87,5.1.43.02.95.03,1.45-.73-.32-.07-1.47-1.52-1.21-1.78,1.55.97.96.45,2.63,1.14-.48-.11-1.08-2.26-.51-2.46.06.34,1.02,1.94.92,2.23l.38-2.59c-.16.52.77,1.69,1.36,2.11-.33-.32,1.2-.5,1.46-.87l-.81-.2c1.69-.4.11-3.54,1.66-4.18.03.52.84,2.81,1.75,2.71-.16-1.2-.97-5.83-.07-7.35l.56.48.66-1.23c.19,1.97.1,6.25-.25,8,.81.21.52.64,1.35.19.59.43-.04,1.08-.28,1.23l2.2-.54c-.71-1.21.91-1.97.3-2.99l-1.53,2.32c-.71-1.2-.52-4.14,1-4.62.61.33.86,2.39,1.1,2.8-.03-.52.93-1.47,1.21-1.23l-.26.97c1.03.11.44-2.31,1.99-1.54.37-.08,1.8,1.19,1.48.4-1.27-1.22-3.63-5.7-3.83-6.99.16.04,2.4.55,3.13,1.1,1.11.89.58,3.16,1.53,3.92-.16-.36-.08-.94-.03-1.15.49.13.41,1.17,1.07.64-.53-1.37,1.56-.64-.2-1.28.54-.74.9-.11,1.72-.59-.69-.71-.68-3.27-.14-4,.12.35.5.71.68.86,1.54-.62,2.63-.43,4.01-1.11.28.25,1.13.29,1.13.99.08-.33.05-.86.46-1.1,1.37.69-.86.66.43,1.67-.32-.77.58-1.59.96-2.36-.75-1.04-1.51.49-1.88,1.27-.8-1.59-.57-3.78.53-5.2.96-.94,1,.77,1.09.45,2.3-.79.52-3.56,2.88-3.3,1.2.62.98,1.88,1.48,2.5-.75.83-1.74.1-2.36.44l1.01.08c-.14.47-.64,1.03-1.12.91,1.03.58,3.73-1.64,5.77-1.7.14-.46.49-1.03.07-1.28l-.46.39c-.86-.51.48-1.51-.36-1.53.45-.86.86-2.03,2.07-2.08l.69.92c-.17-.28-.96-.3-1.09.15.2-.64,2.22.63,2.02-.89l-1.05-.37c.47-.84.85-2.27,1.91-2.34-.89-.78-.15.2-1.36-.66,1.26,1.17-2.36.91-.71,2.04-1.33-1.07-1.42-.07-2.88-.88.2.33.63.52-.22.67.02.11,0,.28-.02.37-.03,0-.04,0-.06,0l.06.02c0,.07,0,.08.02,0,.26.07.49.19.65.35.01.95-1.19,1.47-1.39,2.07-.53.04-.01-.49-.44-.75l-.29.9c-.45-.75-1.84-.78-1.01-1.7l-.97.38c-.78-.2-1.65-.05-1.96.5-.54.02-.69,1.4-.61.59l-1.23,1.17-.12-.2c-1.52.55-2.32,2.77-4.74,2.03-.38.44-.76.95-1.7,1.09l-.53-.67c-.5.56-2.25.16-2.13,1.06-1.68-1.69-3.25,1.05-4.51,1.25l.45,1c-.78.33-1.36.97-2.09,1.84l.48.83c-.45,1.11-2.36.45-3.57,1.21-.08-.37.29-.45.61-.38-2.45-1.1-2.49,3.06-4.53,2.42-.19.48-.49.51-.83.43.03-.02.05-.05.06-.09-.04,0-.09.04-.14.07-.22-.06-.45-.14-.68-.18.24.12.46.21.61.22-.25.16-.6.47-.88.89l-.6-.78s-.05.04-.08.07c-.54-.11-.1.57.43,1.11-.12.25-.22.51-.26.79-1-1.22-.79,1.01-1.94-.23.09.85-1.68,1.59-1.16,3.17-.11-.18-.27-.21-.06-.34-.52.06-1.03.13-1.22.74l-.7-.94-.25,1.89c-.89-.33-1.31-.56-1.13-1.66-.77,1.95-.89,1.06-1.47,2.87l-.27-.68c-.41.25-.65,1.46-1.17,1.07-1.54-.71-4.74,2.28-7.63,2.59,1.3,1.43-1.48-.12-.92,1.23-.33-.31-.77-.34-.56-.9-1.02,1.08-2.09.5-2.41,2.01-.32-.28-.01-.69-.24-.83-.06.14-.22.55-.45.41-.23-.14.02-.41.13-.69-1.17.84-.76,1.99-.35,3.05-.87-.13-1.14.14-1.28,1.02-.38-.2-.9-.31-.19-.87-.46.19-2.84,1.11-2.53,1.84-.22-.1-.63.29-.7.44-.99.51-1.11.5-2.03,1.11l.32-.05c0,.98-.71.61-1.44,1.13v-.09c-2.03.49-.67.65-2.69,1.08l.3.35c.26.93-1.8.35-2.66,1.23h.47c-.44.55-2.07-.18-2.65.08-.15,0,.14-.21.28-.36-1.65.43.03.55-1,1.26-.31-.11-.03-.72-.78-.34-.44.06-1.76,1.89-2.96,2.04.3.03.6.07.14.46-.76.46-2.39.56-2.87,1.39-.12.01-.18,0-.2-.04-.54.43-1.86,1.2-2.1,1.62-1-.61-3.54,2.31-3.95,1.46l-1.86.93v-.11c-1.23.5-1.55.9-1.87,1.32-.31.07-.15-.11-.15-.17-1.86.61-2.04.69-3.26,1.89l-.33-.28c-.15.19-.86.33-1.74.56-.88.22-1.93.5-2.69,1.11,0-.06-.01-.15.1-.27-.87.65-2.22.82-3.36,1.01-1.14.2-2.07.45-1.94,1.59-.36.34-.71.69-1.05,1.05,1.75-.58.2,1.01,1.06,1.05-.58.45-2,.16-1.25-.32l.18.05c-.26-1.24-2.28.52-2.63-.3-3.29,1.46-6.91,2.06-10.02,3.37l.93.99-1.1.43c-.41-.14-.83-.73-.04-1.04-.73-.47-1,1.14-.89,1.41-1.72.23-.1-1.64-.57-1.45l-.58.38.21.07c-.26.72-.05,1.24-.99,1.63-.69.04-.66-.58-.9-.52-.04-.08-.14-.09-.36.14l-1.37.56.99.67c-.36.75-1.27.58-.13,1.32-1.71-1.18-5.21,1.93-6,1.72-.49,1.09-1.3,1.49-2.33,1.93.34.05.99.98.06,1.3-.71-2.21-2.02-.07-3.42-1.13,1.09.61-2.3,1.56-.67,2.36-.79.22-.41-.71-1.17-.87-1.32,1.66-3.94,1.6-5.87,3.06.08.24.6.39.32.98-.55-.17-1.1-.33-1.64-.48-.35.35.25,1.46-.87,1.15.19.12.49.3.24.52-2.28.65-4.22,2.1-6.24,3.4-2.01,1.33-4.12,2.46-6.32,3.37.63-.18.28.09-.12.37.29-.13.11.24.23.33-.63.22-1.24.48-1.83.76-.18.46-1.75,1.24-1.84,1.53l.52-.37c-.3.34,0,.28.41.25.41-.04.93-.05.96.16.36-.33.98-.46,1.7-.57.71-.13,1.52-.22,2.05-.88.38,0-.17.3.06.37.24-.39.64-.63,1.52-.82l-.06.11c2.25-.97,3.38-1.03,6.1-1.73l-.43-.4c.58-.16.77-.05,1.09-.03.26-.99-1.57.57-1.39-.45.6.32,1.57-.06,2.52-.42.95-.36,1.87-.7,2.43-.16.85-.33-.57-.54.28-.88l.4.26-.02-.55c.59-.16,1.09.18,1.27.49-.15.02-.34.24-.47.32.94.15,1.96-.95,2.27-.91l-.93.09c2.11-1.31,5.17-1.95,6.93-3.8l-.33-.25c1.36-1.37,1.51-.25,3.19-1.37l-.03.11c.2-.51.6-.91,1.11-1.1-.26.62,1.25.38.87,1.11,1.46-1.52.62-.95,1.16-2.81l.56.45c.14-.72.03-1.01.86-1.61-.49.86,1.02.62.53,1.68,2.54.39,2.16-2.67,3.98-1.19.04-2.08-2.09-.12-1.78-.71-.67-.34.1-1.58.78-1.71.62-.26,2.08,1.62,3.57.82-.15.07-.1.2-.25.27.77.13.82-1.13,1.85-.81-.11-1.19.92-.41.4-1.73l-1.23,1c.61-.74.61-2.58,2.26-2.53.02.3-.19.83-.36,1.16.56.17.6-.62,1.18-.45.51,1.3-1.53,1.16-1.88,2.55.67.32,1.12-1.75,1.38-.16-.26-2.04,1.57-.59,1.92-2.44l.3.77c.1-.2.26-.73.56-.88l-.06,1.24c.41-1.26,1.89-.21,2.44-1.11-1.59.99-.78-.63-1.72-.75,1.53-2.07,2.06,1.18,4.07-.54-.24.29-1.31.3-1-.3.49-.12,1.16-.21,1.59-.04,1.37-1.06-.55-.52-.13-1.3.88.46.56-.76,1.08-1.37l.31.62c1.84-.65-.19-1.53,1.55-1.96l-.23,1.19.67-.69.17.75c.59-1.03.92-1.06,1.83-1.42-.38-.25-.37-1.03.36-1.48.65,0-.04.65.96-.06-.08.45-.14,1.02-.82.84.04.2-.07.47-.03.67.7,0,1.36-.82,1.74-1.06-.15.08-.33.16-.46.15.38-.55.77-1.08,1.17-1.6.32.02.2.27.08.53.28-.24.39-.58.82-.9.06.43.27.77-.27,1.36.4-.46.8-.9,1.22-1.33.17.09.92-.08.8.16.86-.36,1.62-1.88,2.79-2.29.03-.09.11-.21.32-.38,1.03-.54,2.06-.77,3.09-1.8l.89.03c.89-.63-1.19-.01.3-1.05,1.05-.74.59.12,1.04.02.45-.52,1.22-1.43,2.42-1.65-.31.25-.6.33-.91.53ZM86.64,54.97c-.2.17-.58.57-.84.47.1-.46.39-.39.84-.47ZM104.7,45.88c-.07.29-.39.3-.81.21.2-.15.46-.24.81-.21ZM152.36,15.26s0,.03,0,.05c-.69-.1-.44-.05,0-.05ZM153.64,15.15c.05-.17-.02-.28-.12-.38.03.25-.21.37-.52.44.19.19.41.28.64-.06ZM39.24,72.98l.31.1c-.36.45-.33.19-.31-.1Z"/>
      <path class="cls-1" d="M103.01,47.63c-.12-.07-.19-.17-.26-.28-.04.14,0,.25.26.28Z"/>
      <path class="cls-1" d="M67.63,65.17l-.04.02s0,.06,0,.08l.04-.1Z"/>
      <path class="cls-1" d="M140.84,30.92c-.29-.03-.49-.13-.66-.27.1.23.3.38.66.27Z"/>
      <path class="cls-1" d="M158.77,11.26l-.61.5c.32-.18.53-.06.77,0-.11-.18-.38-.39-.16-.49Z"/>
      <path class="cls-1" d="M167.13,13.15c.06-.14.21-.12.26-.25l-.19-.31c-.42.23-.58.64-.07.56Z"/>
      <path class="cls-1" d="M160.72,13.58c.38.63.7.2,1.13-.14-.03.02-.05.03-.09.04-.31-.97-.68-.44-1.05.1Z"/>
      <path class="cls-1" d="M161.95,13.37c.14-.1.28-.19.44-.22-.12-.38-.22,0-.44.22Z"/>
      <path class="cls-1" d="M154.79,14.07c.32.08-.3-.96-.03-.73-.19-1.01-1.02,1.75.03.73Z"/>
      <polygon class="cls-1" points="162.18 15.54 161.61 14.82 161.66 15.6 162.18 15.54"/>
      <path class="cls-1" d="M158.08,16.8l.89-.14c-.08-.14-.03-.27.06-.39-.49.2-1.09.29-.95.53Z"/>
      <path class="cls-1" d="M159.03,16.27c.26-.1.48-.24.55-.44-.13.07-.4.24-.55.44Z"/>
      <polygon class="cls-1" points="161.26 16.31 160.94 16.25 160.37 16.46 161.26 16.31"/>
      <path class="cls-1" d="M149.73,20.67l-.71.68c.07.36.4.44.65.16.09-.32.34-.6.06-.84Z"/>
      <path class="cls-1" d="M153.51,21.92c-.32-.07-.43-.27-.71-.5l.54,1.14.17-.64Z"/>
      <path class="cls-1" d="M151.23,23.44c.08.36-.74,1.55.27.92-.07-.36.62-1.06-.27-.92Z"/>
      <polygon class="cls-1" points="137.92 28.28 138.12 28.16 137.11 26.22 137.92 28.28"/>
      <path class="cls-1" d="M128.98,38.17c1.23-.01-.33-1.24.86-1.1.02-.55-.97-.11-.91-.6-.38.74-.83.62.05,1.7Z"/>
      <path class="cls-1" d="M128.93,36.47c.06-.12.12-.25.17-.42-.12.2-.16.32-.17.42Z"/>
      <polygon class="cls-1" points="1.51 94.69 .91 95.08 1.33 94.89 1.51 94.69"/>
      <path class="cls-1" d="M.5,95.72l-.21-.04c-.09.13-.19.26-.29.38.13-.1.38-.3.5-.34Z"/>
      <path class="cls-1" d="M88.9,55.07v-.13c-.16-.07-.32-.02-.64.09l.64.04Z"/>
      <polygon class="cls-1" points="79.89 58.63 80.05 58.57 79.61 58.38 79.89 58.63"/>
      <path class="cls-1" d="M72.92,62.8c.29-.15.59-.42.89-.57-.6.42-1.18.19-.89.57Z"/>
    </g>
  </g>
</svg>